<?xml version="1.0" encoding="utf-8" standalone="no"?>
<!DOCTYPE svg PUBLIC "-//W3C//DTD SVG 1.1//EN"
  "http://www.w3.org/Graphics/SVG/1.1/DTD/svg11.dtd">
<svg xmlns:xlink="http://www.w3.org/1999/xlink" width="397.604375pt" height="350.621562pt" viewBox="0 0 397.604375 350.621562" xmlns="http://www.w3.org/2000/svg" version="1.1">
 <metadata>
  <rdf:RDF xmlns:dc="http://purl.org/dc/elements/1.1/" xmlns:cc="http://creativecommons.org/ns#" xmlns:rdf="http://www.w3.org/1999/02/22-rdf-syntax-ns#">
   <cc:Work>
    <dc:type rdf:resource="http://purl.org/dc/dcmitype/StillImage"/>
    <dc:date>2024-06-13T16:02:35.425552</dc:date>
    <dc:format>image/svg+xml</dc:format>
    <dc:creator>
     <cc:Agent>
      <dc:title>Matplotlib v3.6.3, https://matplotlib.org/</dc:title>
     </cc:Agent>
    </dc:creator>
   </cc:Work>
  </rdf:RDF>
 </metadata>
 <defs>
  <style type="text/css">*{stroke-linejoin: round; stroke-linecap: butt}</style>
 </defs>
 <g id="figure_1">
  <g id="patch_1">
   <path d="M 0 350.621562 
L 397.604375 350.621562 
L 397.604375 0 
L 0 0 
z
" style="fill: #ffffff"/>
  </g>
  <g id="axes_1">
   <g id="patch_2">
    <path d="M 30.103125 301.8675 
L 387.223125 301.8675 
L 387.223125 35.7555 
L 30.103125 35.7555 
z
" style="fill: #ffffff"/>
   </g>
   <g id="patch_3">
    <path d="M 133.783648 301.8675 
L 277.182528 301.8675 
L 277.182528 300.713089 
L 133.783648 300.713089 
z
" clip-path="url(#p1a0b106187)" style="fill: #1f77b4; opacity: 0.7"/>
   </g>
   <g id="patch_4">
    <path d="M 277.182528 301.8675 
L 420.581408 301.8675 
L 420.581408 299.443237 
L 277.182528 299.443237 
z
" clip-path="url(#p1a0b106187)" style="fill: #1f77b4; opacity: 0.7"/>
   </g>
   <g id="patch_5">
    <path d="M 420.581408 301.8675 
L 563.980288 301.8675 
L 563.980288 296.557209 
L 420.581408 296.557209 
z
" clip-path="url(#p1a0b106187)" style="fill: #1f77b4; opacity: 0.7"/>
   </g>
   <g id="patch_6">
    <path d="M 563.980288 301.8675 
L 707.379168 301.8675 
L 707.379168 295.633681 
L 563.980288 295.633681 
z
" clip-path="url(#p1a0b106187)" style="fill: #1f77b4; opacity: 0.7"/>
   </g>
   <g id="patch_7">
    <path d="M 707.379168 301.8675 
L 850.778049 301.8675 
L 850.778049 296.557209 
L 707.379168 296.557209 
z
" clip-path="url(#p1a0b106187)" style="fill: #1f77b4; opacity: 0.7"/>
   </g>
   <g id="patch_8">
    <path d="M 850.778049 301.8675 
L 994.176929 301.8675 
L 994.176929 297.827062 
L 850.778049 297.827062 
z
" clip-path="url(#p1a0b106187)" style="fill: #1f77b4; opacity: 0.7"/>
   </g>
   <g id="patch_9">
    <path d="M 994.176929 301.8675 
L 1137.575809 301.8675 
L 1137.575809 297.827062 
L 994.176929 297.827062 
z
" clip-path="url(#p1a0b106187)" style="fill: #1f77b4; opacity: 0.7"/>
   </g>
   <g id="patch_10">
    <path d="M 1137.575809 301.8675 
L 1280.974689 301.8675 
L 1280.974689 299.558678 
L 1137.575809 299.558678 
z
" clip-path="url(#p1a0b106187)" style="fill: #1f77b4; opacity: 0.7"/>
   </g>
   <g id="patch_11">
    <path d="M 1280.974689 301.8675 
L 1424.373569 301.8675 
L 1424.373569 300.482207 
L 1280.974689 300.482207 
z
" clip-path="url(#p1a0b106187)" style="fill: #1f77b4; opacity: 0.7"/>
   </g>
   <g id="patch_12">
    <path d="M 1424.373569 301.8675 
L 1567.772449 301.8675 
L 1567.772449 301.059412 
L 1424.373569 301.059412 
z
" clip-path="url(#p1a0b106187)" style="fill: #1f77b4; opacity: 0.7"/>
   </g>
   <g id="patch_13">
    <path d="M 1567.772449 301.8675 
L 1711.171329 301.8675 
L 1711.171329 301.290295 
L 1567.772449 301.290295 
z
" clip-path="url(#p1a0b106187)" style="fill: #1f77b4; opacity: 0.7"/>
   </g>
   <g id="patch_14">
    <path d="M 1711.171329 301.8675 
L 1854.570209 301.8675 
L 1854.570209 301.174853 
L 1711.171329 301.174853 
z
" clip-path="url(#p1a0b106187)" style="fill: #1f77b4; opacity: 0.7"/>
   </g>
   <g id="patch_15">
    <path d="M 1854.570209 301.8675 
L 1997.96909 301.8675 
L 1997.96909 301.8675 
L 1854.570209 301.8675 
z
" clip-path="url(#p1a0b106187)" style="fill: #1f77b4; opacity: 0.7"/>
   </g>
   <g id="patch_16">
    <path d="M 1997.96909 301.8675 
L 2141.36797 301.8675 
L 2141.36797 301.8675 
L 1997.96909 301.8675 
z
" clip-path="url(#p1a0b106187)" style="fill: #1f77b4; opacity: 0.7"/>
   </g>
   <g id="patch_17">
    <path d="M 2141.36797 301.8675 
L 2284.76685 301.8675 
L 2284.76685 301.8675 
L 2141.36797 301.8675 
z
" clip-path="url(#p1a0b106187)" style="fill: #1f77b4; opacity: 0.7"/>
   </g>
   <g id="patch_18">
    <path d="M 2284.76685 301.8675 
L 2428.16573 301.8675 
L 2428.16573 301.752059 
L 2284.76685 301.752059 
z
" clip-path="url(#p1a0b106187)" style="fill: #1f77b4; opacity: 0.7"/>
   </g>
   <g id="patch_19">
    <path d="M 2428.16573 301.8675 
L 2571.56461 301.8675 
L 2571.56461 301.8675 
L 2428.16573 301.8675 
z
" clip-path="url(#p1a0b106187)" style="fill: #1f77b4; opacity: 0.7"/>
   </g>
   <g id="patch_20">
    <path d="M 2571.56461 301.8675 
L 2714.96349 301.8675 
L 2714.96349 301.8675 
L 2571.56461 301.8675 
z
" clip-path="url(#p1a0b106187)" style="fill: #1f77b4; opacity: 0.7"/>
   </g>
   <g id="patch_21">
    <path d="M 2714.96349 301.8675 
L 2858.36237 301.8675 
L 2858.36237 301.752059 
L 2714.96349 301.752059 
z
" clip-path="url(#p1a0b106187)" style="fill: #1f77b4; opacity: 0.7"/>
   </g>
   <g id="patch_22">
    <path d="M 62.358177 301.8675 
L 69.430657 301.8675 
L 69.430657 292.504943 
L 62.358177 292.504943 
z
" clip-path="url(#p1a0b106187)" style="fill: #ff7f0e; opacity: 0.6"/>
   </g>
   <g id="patch_23">
    <path d="M 69.430657 301.8675 
L 76.503137 301.8675 
L 76.503137 252.714075 
L 69.430657 252.714075 
z
" clip-path="url(#p1a0b106187)" style="fill: #ff7f0e; opacity: 0.6"/>
   </g>
   <g id="patch_24">
    <path d="M 76.503137 301.8675 
L 83.575617 301.8675 
L 83.575617 226.967043 
L 76.503137 226.967043 
z
" clip-path="url(#p1a0b106187)" style="fill: #ff7f0e; opacity: 0.6"/>
   </g>
   <g id="patch_25">
    <path d="M 83.575617 301.8675 
L 90.648097 301.8675 
L 90.648097 203.56065 
L 83.575617 203.56065 
z
" clip-path="url(#p1a0b106187)" style="fill: #ff7f0e; opacity: 0.6"/>
   </g>
   <g id="patch_26">
    <path d="M 90.648097 301.8675 
L 97.720577 301.8675 
L 97.720577 177.813618 
L 90.648097 177.813618 
z
" clip-path="url(#p1a0b106187)" style="fill: #ff7f0e; opacity: 0.6"/>
   </g>
   <g id="patch_27">
    <path d="M 97.720577 301.8675 
L 104.793057 301.8675 
L 104.793057 187.176175 
L 97.720577 187.176175 
z
" clip-path="url(#p1a0b106187)" style="fill: #ff7f0e; opacity: 0.6"/>
   </g>
   <g id="patch_28">
    <path d="M 104.793057 301.8675 
L 111.865537 301.8675 
L 111.865537 245.692157 
L 104.793057 245.692157 
z
" clip-path="url(#p1a0b106187)" style="fill: #ff7f0e; opacity: 0.6"/>
   </g>
   <g id="patch_29">
    <path d="M 111.865537 301.8675 
L 118.938017 301.8675 
L 118.938017 238.670239 
L 111.865537 238.670239 
z
" clip-path="url(#p1a0b106187)" style="fill: #ff7f0e; opacity: 0.6"/>
   </g>
   <g id="patch_30">
    <path d="M 118.938017 301.8675 
L 126.010497 301.8675 
L 126.010497 262.076632 
L 118.938017 262.076632 
z
" clip-path="url(#p1a0b106187)" style="fill: #ff7f0e; opacity: 0.6"/>
   </g>
   <g id="patch_31">
    <path d="M 126.010497 301.8675 
L 133.082977 301.8675 
L 133.082977 292.504943 
L 126.010497 292.504943 
z
" clip-path="url(#p1a0b106187)" style="fill: #ff7f0e; opacity: 0.6"/>
   </g>
   <g id="patch_32">
    <path d="M 133.082977 301.8675 
L 140.155457 301.8675 
L 140.155457 294.845582 
L 133.082977 294.845582 
z
" clip-path="url(#p1a0b106187)" style="fill: #ff7f0e; opacity: 0.6"/>
   </g>
   <g id="patch_33">
    <path d="M 140.155457 301.8675 
L 147.227936 301.8675 
L 147.227936 294.845582 
L 140.155457 294.845582 
z
" clip-path="url(#p1a0b106187)" style="fill: #ff7f0e; opacity: 0.6"/>
   </g>
   <g id="patch_34">
    <path d="M 147.227936 301.8675 
L 154.300416 301.8675 
L 154.300416 294.845582 
L 147.227936 294.845582 
z
" clip-path="url(#p1a0b106187)" style="fill: #ff7f0e; opacity: 0.6"/>
   </g>
   <g id="patch_35">
    <path d="M 154.300416 301.8675 
L 161.372896 301.8675 
L 161.372896 301.8675 
L 154.300416 301.8675 
z
" clip-path="url(#p1a0b106187)" style="fill: #ff7f0e; opacity: 0.6"/>
   </g>
   <g id="patch_36">
    <path d="M 161.372896 301.8675 
L 168.445376 301.8675 
L 168.445376 301.8675 
L 161.372896 301.8675 
z
" clip-path="url(#p1a0b106187)" style="fill: #ff7f0e; opacity: 0.6"/>
   </g>
   <g id="patch_37">
    <path d="M 168.445376 301.8675 
L 175.517856 301.8675 
L 175.517856 301.8675 
L 168.445376 301.8675 
z
" clip-path="url(#p1a0b106187)" style="fill: #ff7f0e; opacity: 0.6"/>
   </g>
   <g id="patch_38">
    <path d="M 175.517856 301.8675 
L 182.590336 301.8675 
L 182.590336 301.8675 
L 175.517856 301.8675 
z
" clip-path="url(#p1a0b106187)" style="fill: #ff7f0e; opacity: 0.6"/>
   </g>
   <g id="patch_39">
    <path d="M 182.590336 301.8675 
L 189.662816 301.8675 
L 189.662816 297.186221 
L 182.590336 297.186221 
z
" clip-path="url(#p1a0b106187)" style="fill: #ff7f0e; opacity: 0.6"/>
   </g>
   <g id="patch_40">
    <path d="M 189.662816 301.8675 
L 196.735296 301.8675 
L 196.735296 299.526861 
L 189.662816 299.526861 
z
" clip-path="url(#p1a0b106187)" style="fill: #ff7f0e; opacity: 0.6"/>
   </g>
   <g id="patch_41">
    <path d="M 196.735296 301.8675 
L 203.807776 301.8675 
L 203.807776 294.845582 
L 196.735296 294.845582 
z
" clip-path="url(#p1a0b106187)" style="fill: #ff7f0e; opacity: 0.6"/>
   </g>
   <g id="patch_42">
    <path d="M 203.807776 301.8675 
L 210.880256 301.8675 
L 210.880256 301.8675 
L 203.807776 301.8675 
z
" clip-path="url(#p1a0b106187)" style="fill: #ff7f0e; opacity: 0.6"/>
   </g>
   <g id="patch_43">
    <path d="M 210.880256 301.8675 
L 217.952736 301.8675 
L 217.952736 299.526861 
L 210.880256 299.526861 
z
" clip-path="url(#p1a0b106187)" style="fill: #ff7f0e; opacity: 0.6"/>
   </g>
   <g id="patch_44">
    <path d="M 217.952736 301.8675 
L 225.025216 301.8675 
L 225.025216 299.526861 
L 217.952736 299.526861 
z
" clip-path="url(#p1a0b106187)" style="fill: #ff7f0e; opacity: 0.6"/>
   </g>
   <g id="patch_45">
    <path d="M 225.025216 301.8675 
L 232.097696 301.8675 
L 232.097696 299.526861 
L 225.025216 299.526861 
z
" clip-path="url(#p1a0b106187)" style="fill: #ff7f0e; opacity: 0.6"/>
   </g>
   <g id="patch_46">
    <path d="M 232.097696 301.8675 
L 239.170176 301.8675 
L 239.170176 301.8675 
L 232.097696 301.8675 
z
" clip-path="url(#p1a0b106187)" style="fill: #ff7f0e; opacity: 0.6"/>
   </g>
   <g id="patch_47">
    <path d="M 239.170176 301.8675 
L 246.242656 301.8675 
L 246.242656 299.526861 
L 239.170176 299.526861 
z
" clip-path="url(#p1a0b106187)" style="fill: #ff7f0e; opacity: 0.6"/>
   </g>
   <g id="patch_48">
    <path d="M 246.242656 301.8675 
L 253.315136 301.8675 
L 253.315136 301.8675 
L 246.242656 301.8675 
z
" clip-path="url(#p1a0b106187)" style="fill: #ff7f0e; opacity: 0.6"/>
   </g>
   <g id="patch_49">
    <path d="M 253.315136 301.8675 
L 260.387616 301.8675 
L 260.387616 299.526861 
L 253.315136 299.526861 
z
" clip-path="url(#p1a0b106187)" style="fill: #ff7f0e; opacity: 0.6"/>
   </g>
   <g id="patch_50">
    <path d="M 260.387616 301.8675 
L 267.460095 301.8675 
L 267.460095 301.8675 
L 260.387616 301.8675 
z
" clip-path="url(#p1a0b106187)" style="fill: #ff7f0e; opacity: 0.6"/>
   </g>
   <g id="patch_51">
    <path d="M 267.460095 301.8675 
L 274.532575 301.8675 
L 274.532575 301.8675 
L 267.460095 301.8675 
z
" clip-path="url(#p1a0b106187)" style="fill: #ff7f0e; opacity: 0.6"/>
   </g>
   <g id="patch_52">
    <path d="M 274.532575 301.8675 
L 281.605055 301.8675 
L 281.605055 301.8675 
L 274.532575 301.8675 
z
" clip-path="url(#p1a0b106187)" style="fill: #ff7f0e; opacity: 0.6"/>
   </g>
   <g id="patch_53">
    <path d="M 281.605055 301.8675 
L 288.677535 301.8675 
L 288.677535 301.8675 
L 281.605055 301.8675 
z
" clip-path="url(#p1a0b106187)" style="fill: #ff7f0e; opacity: 0.6"/>
   </g>
   <g id="patch_54">
    <path d="M 288.677535 301.8675 
L 295.750015 301.8675 
L 295.750015 299.526861 
L 288.677535 299.526861 
z
" clip-path="url(#p1a0b106187)" style="fill: #ff7f0e; opacity: 0.6"/>
   </g>
   <g id="patch_55">
    <path d="M 295.750015 301.8675 
L 302.822495 301.8675 
L 302.822495 301.8675 
L 295.750015 301.8675 
z
" clip-path="url(#p1a0b106187)" style="fill: #ff7f0e; opacity: 0.6"/>
   </g>
   <g id="patch_56">
    <path d="M 302.822495 301.8675 
L 309.894975 301.8675 
L 309.894975 299.526861 
L 302.822495 299.526861 
z
" clip-path="url(#p1a0b106187)" style="fill: #ff7f0e; opacity: 0.6"/>
   </g>
   <g id="patch_57">
    <path d="M 309.894975 301.8675 
L 316.967455 301.8675 
L 316.967455 301.8675 
L 309.894975 301.8675 
z
" clip-path="url(#p1a0b106187)" style="fill: #ff7f0e; opacity: 0.6"/>
   </g>
   <g id="patch_58">
    <path d="M 316.967455 301.8675 
L 324.039935 301.8675 
L 324.039935 301.8675 
L 316.967455 301.8675 
z
" clip-path="url(#p1a0b106187)" style="fill: #ff7f0e; opacity: 0.6"/>
   </g>
   <g id="patch_59">
    <path d="M 324.039935 301.8675 
L 331.112415 301.8675 
L 331.112415 301.8675 
L 324.039935 301.8675 
z
" clip-path="url(#p1a0b106187)" style="fill: #ff7f0e; opacity: 0.6"/>
   </g>
   <g id="patch_60">
    <path d="M 331.112415 301.8675 
L 338.184895 301.8675 
L 338.184895 301.8675 
L 331.112415 301.8675 
z
" clip-path="url(#p1a0b106187)" style="fill: #ff7f0e; opacity: 0.6"/>
   </g>
   <g id="patch_61">
    <path d="M 338.184895 301.8675 
L 345.257375 301.8675 
L 345.257375 301.8675 
L 338.184895 301.8675 
z
" clip-path="url(#p1a0b106187)" style="fill: #ff7f0e; opacity: 0.6"/>
   </g>
   <g id="patch_62">
    <path d="M 345.257375 301.8675 
L 352.329855 301.8675 
L 352.329855 301.8675 
L 345.257375 301.8675 
z
" clip-path="url(#p1a0b106187)" style="fill: #ff7f0e; opacity: 0.6"/>
   </g>
   <g id="patch_63">
    <path d="M 352.329855 301.8675 
L 359.402335 301.8675 
L 359.402335 299.526861 
L 352.329855 299.526861 
z
" clip-path="url(#p1a0b106187)" style="fill: #ff7f0e; opacity: 0.6"/>
   </g>
   <g id="patch_64">
    <path d="M 359.402335 301.8675 
L 366.474815 301.8675 
L 366.474815 299.526861 
L 359.402335 299.526861 
z
" clip-path="url(#p1a0b106187)" style="fill: #ff7f0e; opacity: 0.6"/>
   </g>
   <g id="patch_65">
    <path d="M 366.474815 301.8675 
L 373.547295 301.8675 
L 373.547295 301.8675 
L 366.474815 301.8675 
z
" clip-path="url(#p1a0b106187)" style="fill: #ff7f0e; opacity: 0.6"/>
   </g>
   <g id="patch_66">
    <path d="M 373.547295 301.8675 
L 380.619775 301.8675 
L 380.619775 301.8675 
L 373.547295 301.8675 
z
" clip-path="url(#p1a0b106187)" style="fill: #ff7f0e; opacity: 0.6"/>
   </g>
   <g id="patch_67">
    <path d="M 380.619775 301.8675 
L 387.692255 301.8675 
L 387.692255 301.8675 
L 380.619775 301.8675 
z
" clip-path="url(#p1a0b106187)" style="fill: #ff7f0e; opacity: 0.6"/>
   </g>
   <g id="patch_68">
    <path d="M 387.692255 301.8675 
L 394.764734 301.8675 
L 394.764734 301.8675 
L 387.692255 301.8675 
z
" clip-path="url(#p1a0b106187)" style="fill: #ff7f0e; opacity: 0.6"/>
   </g>
   <g id="patch_69">
    <path d="M 394.764734 301.8675 
L 401.837214 301.8675 
L 401.837214 301.8675 
L 394.764734 301.8675 
z
" clip-path="url(#p1a0b106187)" style="fill: #ff7f0e; opacity: 0.6"/>
   </g>
   <g id="patch_70">
    <path d="M 401.837214 301.8675 
L 408.909694 301.8675 
L 408.909694 301.8675 
L 401.837214 301.8675 
z
" clip-path="url(#p1a0b106187)" style="fill: #ff7f0e; opacity: 0.6"/>
   </g>
   <g id="patch_71">
    <path d="M 408.909694 301.8675 
L 415.982174 301.8675 
L 415.982174 299.526861 
L 408.909694 299.526861 
z
" clip-path="url(#p1a0b106187)" style="fill: #ff7f0e; opacity: 0.6"/>
   </g>
   <g id="patch_72">
    <path d="M 415.982174 301.8675 
L 423.054654 301.8675 
L 423.054654 301.8675 
L 415.982174 301.8675 
z
" clip-path="url(#p1a0b106187)" style="fill: #ff7f0e; opacity: 0.6"/>
   </g>
   <g id="patch_73">
    <path d="M 423.054654 301.8675 
L 430.127134 301.8675 
L 430.127134 301.8675 
L 423.054654 301.8675 
z
" clip-path="url(#p1a0b106187)" style="fill: #ff7f0e; opacity: 0.6"/>
   </g>
   <g id="patch_74">
    <path d="M 430.127134 301.8675 
L 437.199614 301.8675 
L 437.199614 301.8675 
L 430.127134 301.8675 
z
" clip-path="url(#p1a0b106187)" style="fill: #ff7f0e; opacity: 0.6"/>
   </g>
   <g id="patch_75">
    <path d="M 437.199614 301.8675 
L 444.272094 301.8675 
L 444.272094 301.8675 
L 437.199614 301.8675 
z
" clip-path="url(#p1a0b106187)" style="fill: #ff7f0e; opacity: 0.6"/>
   </g>
   <g id="patch_76">
    <path d="M 444.272094 301.8675 
L 451.344574 301.8675 
L 451.344574 301.8675 
L 444.272094 301.8675 
z
" clip-path="url(#p1a0b106187)" style="fill: #ff7f0e; opacity: 0.6"/>
   </g>
   <g id="patch_77">
    <path d="M 451.344574 301.8675 
L 458.417054 301.8675 
L 458.417054 301.8675 
L 451.344574 301.8675 
z
" clip-path="url(#p1a0b106187)" style="fill: #ff7f0e; opacity: 0.6"/>
   </g>
   <g id="patch_78">
    <path d="M 458.417054 301.8675 
L 465.489534 301.8675 
L 465.489534 301.8675 
L 458.417054 301.8675 
z
" clip-path="url(#p1a0b106187)" style="fill: #ff7f0e; opacity: 0.6"/>
   </g>
   <g id="patch_79">
    <path d="M 465.489534 301.8675 
L 472.562014 301.8675 
L 472.562014 301.8675 
L 465.489534 301.8675 
z
" clip-path="url(#p1a0b106187)" style="fill: #ff7f0e; opacity: 0.6"/>
   </g>
   <g id="patch_80">
    <path d="M 472.562014 301.8675 
L 479.634494 301.8675 
L 479.634494 301.8675 
L 472.562014 301.8675 
z
" clip-path="url(#p1a0b106187)" style="fill: #ff7f0e; opacity: 0.6"/>
   </g>
   <g id="patch_81">
    <path d="M 479.634494 301.8675 
L 486.706974 301.8675 
L 486.706974 299.526861 
L 479.634494 299.526861 
z
" clip-path="url(#p1a0b106187)" style="fill: #ff7f0e; opacity: 0.6"/>
   </g>
   <g id="matplotlib.axis_1">
    <g id="xtick_1">
     <g id="line2d_1">
      <defs>
       <path id="ma4ff477fa1" d="M 0 0 
L 0 3.5 
" style="stroke: #000000; stroke-width: 0.8"/>
      </defs>
      <g>
       <use xlink:href="#ma4ff477fa1" x="30.103125" y="301.8675" style="stroke: #000000; stroke-width: 0.8"/>
      </g>
     </g>
     <g id="text_1">
      <!-- −1 -->
      <g transform="translate(22.732031 316.465937) scale(0.1 -0.1)">
       <defs>
        <path id="DejaVuSans-2212" d="M 678 2272 
L 4684 2272 
L 4684 1741 
L 678 1741 
L 678 2272 
z
" transform="scale(0.015625)"/>
        <path id="DejaVuSans-31" d="M 794 531 
L 1825 531 
L 1825 4091 
L 703 3866 
L 703 4441 
L 1819 4666 
L 2450 4666 
L 2450 531 
L 3481 531 
L 3481 0 
L 794 0 
L 794 531 
z
" transform="scale(0.015625)"/>
       </defs>
       <use xlink:href="#DejaVuSans-2212"/>
       <use xlink:href="#DejaVuSans-31" x="83.789062"/>
      </g>
     </g>
    </g>
    <g id="xtick_2">
     <g id="line2d_2">
      <g>
       <use xlink:href="#ma4ff477fa1" x="74.743125" y="301.8675" style="stroke: #000000; stroke-width: 0.8"/>
      </g>
     </g>
     <g id="text_2">
      <!-- 0 -->
      <g transform="translate(71.561875 316.465937) scale(0.1 -0.1)">
       <defs>
        <path id="DejaVuSans-30" d="M 2034 4250 
Q 1547 4250 1301 3770 
Q 1056 3291 1056 2328 
Q 1056 1369 1301 889 
Q 1547 409 2034 409 
Q 2525 409 2770 889 
Q 3016 1369 3016 2328 
Q 3016 3291 2770 3770 
Q 2525 4250 2034 4250 
z
M 2034 4750 
Q 2819 4750 3233 4129 
Q 3647 3509 3647 2328 
Q 3647 1150 3233 529 
Q 2819 -91 2034 -91 
Q 1250 -91 836 529 
Q 422 1150 422 2328 
Q 422 3509 836 4129 
Q 1250 4750 2034 4750 
z
" transform="scale(0.015625)"/>
       </defs>
       <use xlink:href="#DejaVuSans-30"/>
      </g>
     </g>
    </g>
    <g id="xtick_3">
     <g id="line2d_3">
      <g>
       <use xlink:href="#ma4ff477fa1" x="119.383125" y="301.8675" style="stroke: #000000; stroke-width: 0.8"/>
      </g>
     </g>
     <g id="text_3">
      <!-- 1 -->
      <g transform="translate(116.201875 316.465937) scale(0.1 -0.1)">
       <use xlink:href="#DejaVuSans-31"/>
      </g>
     </g>
    </g>
    <g id="xtick_4">
     <g id="line2d_4">
      <g>
       <use xlink:href="#ma4ff477fa1" x="164.023125" y="301.8675" style="stroke: #000000; stroke-width: 0.8"/>
      </g>
     </g>
     <g id="text_4">
      <!-- 2 -->
      <g transform="translate(160.841875 316.465937) scale(0.1 -0.1)">
       <defs>
        <path id="DejaVuSans-32" d="M 1228 531 
L 3431 531 
L 3431 0 
L 469 0 
L 469 531 
Q 828 903 1448 1529 
Q 2069 2156 2228 2338 
Q 2531 2678 2651 2914 
Q 2772 3150 2772 3378 
Q 2772 3750 2511 3984 
Q 2250 4219 1831 4219 
Q 1534 4219 1204 4116 
Q 875 4013 500 3803 
L 500 4441 
Q 881 4594 1212 4672 
Q 1544 4750 1819 4750 
Q 2544 4750 2975 4387 
Q 3406 4025 3406 3419 
Q 3406 3131 3298 2873 
Q 3191 2616 2906 2266 
Q 2828 2175 2409 1742 
Q 1991 1309 1228 531 
z
" transform="scale(0.015625)"/>
       </defs>
       <use xlink:href="#DejaVuSans-32"/>
      </g>
     </g>
    </g>
    <g id="xtick_5">
     <g id="line2d_5">
      <g>
       <use xlink:href="#ma4ff477fa1" x="208.663125" y="301.8675" style="stroke: #000000; stroke-width: 0.8"/>
      </g>
     </g>
     <g id="text_5">
      <!-- 3 -->
      <g transform="translate(205.481875 316.465937) scale(0.1 -0.1)">
       <defs>
        <path id="DejaVuSans-33" d="M 2597 2516 
Q 3050 2419 3304 2112 
Q 3559 1806 3559 1356 
Q 3559 666 3084 287 
Q 2609 -91 1734 -91 
Q 1441 -91 1130 -33 
Q 819 25 488 141 
L 488 750 
Q 750 597 1062 519 
Q 1375 441 1716 441 
Q 2309 441 2620 675 
Q 2931 909 2931 1356 
Q 2931 1769 2642 2001 
Q 2353 2234 1838 2234 
L 1294 2234 
L 1294 2753 
L 1863 2753 
Q 2328 2753 2575 2939 
Q 2822 3125 2822 3475 
Q 2822 3834 2567 4026 
Q 2313 4219 1838 4219 
Q 1578 4219 1281 4162 
Q 984 4106 628 3988 
L 628 4550 
Q 988 4650 1302 4700 
Q 1616 4750 1894 4750 
Q 2613 4750 3031 4423 
Q 3450 4097 3450 3541 
Q 3450 3153 3228 2886 
Q 3006 2619 2597 2516 
z
" transform="scale(0.015625)"/>
       </defs>
       <use xlink:href="#DejaVuSans-33"/>
      </g>
     </g>
    </g>
    <g id="xtick_6">
     <g id="line2d_6">
      <g>
       <use xlink:href="#ma4ff477fa1" x="253.303125" y="301.8675" style="stroke: #000000; stroke-width: 0.8"/>
      </g>
     </g>
     <g id="text_6">
      <!-- 4 -->
      <g transform="translate(250.121875 316.465937) scale(0.1 -0.1)">
       <defs>
        <path id="DejaVuSans-34" d="M 2419 4116 
L 825 1625 
L 2419 1625 
L 2419 4116 
z
M 2253 4666 
L 3047 4666 
L 3047 1625 
L 3713 1625 
L 3713 1100 
L 3047 1100 
L 3047 0 
L 2419 0 
L 2419 1100 
L 313 1100 
L 313 1709 
L 2253 4666 
z
" transform="scale(0.015625)"/>
       </defs>
       <use xlink:href="#DejaVuSans-34"/>
      </g>
     </g>
    </g>
    <g id="xtick_7">
     <g id="line2d_7">
      <g>
       <use xlink:href="#ma4ff477fa1" x="297.943125" y="301.8675" style="stroke: #000000; stroke-width: 0.8"/>
      </g>
     </g>
     <g id="text_7">
      <!-- 5 -->
      <g transform="translate(294.761875 316.465937) scale(0.1 -0.1)">
       <defs>
        <path id="DejaVuSans-35" d="M 691 4666 
L 3169 4666 
L 3169 4134 
L 1269 4134 
L 1269 2991 
Q 1406 3038 1543 3061 
Q 1681 3084 1819 3084 
Q 2600 3084 3056 2656 
Q 3513 2228 3513 1497 
Q 3513 744 3044 326 
Q 2575 -91 1722 -91 
Q 1428 -91 1123 -41 
Q 819 9 494 109 
L 494 744 
Q 775 591 1075 516 
Q 1375 441 1709 441 
Q 2250 441 2565 725 
Q 2881 1009 2881 1497 
Q 2881 1984 2565 2268 
Q 2250 2553 1709 2553 
Q 1456 2553 1204 2497 
Q 953 2441 691 2322 
L 691 4666 
z
" transform="scale(0.015625)"/>
       </defs>
       <use xlink:href="#DejaVuSans-35"/>
      </g>
     </g>
    </g>
    <g id="xtick_8">
     <g id="line2d_8">
      <g>
       <use xlink:href="#ma4ff477fa1" x="342.583125" y="301.8675" style="stroke: #000000; stroke-width: 0.8"/>
      </g>
     </g>
     <g id="text_8">
      <!-- 6 -->
      <g transform="translate(339.401875 316.465937) scale(0.1 -0.1)">
       <defs>
        <path id="DejaVuSans-36" d="M 2113 2584 
Q 1688 2584 1439 2293 
Q 1191 2003 1191 1497 
Q 1191 994 1439 701 
Q 1688 409 2113 409 
Q 2538 409 2786 701 
Q 3034 994 3034 1497 
Q 3034 2003 2786 2293 
Q 2538 2584 2113 2584 
z
M 3366 4563 
L 3366 3988 
Q 3128 4100 2886 4159 
Q 2644 4219 2406 4219 
Q 1781 4219 1451 3797 
Q 1122 3375 1075 2522 
Q 1259 2794 1537 2939 
Q 1816 3084 2150 3084 
Q 2853 3084 3261 2657 
Q 3669 2231 3669 1497 
Q 3669 778 3244 343 
Q 2819 -91 2113 -91 
Q 1303 -91 875 529 
Q 447 1150 447 2328 
Q 447 3434 972 4092 
Q 1497 4750 2381 4750 
Q 2619 4750 2861 4703 
Q 3103 4656 3366 4563 
z
" transform="scale(0.015625)"/>
       </defs>
       <use xlink:href="#DejaVuSans-36"/>
      </g>
     </g>
    </g>
    <g id="xtick_9">
     <g id="line2d_9">
      <g>
       <use xlink:href="#ma4ff477fa1" x="387.223125" y="301.8675" style="stroke: #000000; stroke-width: 0.8"/>
      </g>
     </g>
     <g id="text_9">
      <!-- 7 -->
      <g transform="translate(384.041875 316.465937) scale(0.1 -0.1)">
       <defs>
        <path id="DejaVuSans-37" d="M 525 4666 
L 3525 4666 
L 3525 4397 
L 1831 0 
L 1172 0 
L 2766 4134 
L 525 4134 
L 525 4666 
z
" transform="scale(0.015625)"/>
       </defs>
       <use xlink:href="#DejaVuSans-37"/>
      </g>
     </g>
    </g>
    <g id="text_10">
     <!-- Leading poles. Mean: 16.76. SD: 8.45 -->
     <g transform="translate(115.027187 330.144062) scale(0.1 -0.1)">
      <defs>
       <path id="DejaVuSans-4c" d="M 628 4666 
L 1259 4666 
L 1259 531 
L 3531 531 
L 3531 0 
L 628 0 
L 628 4666 
z
" transform="scale(0.015625)"/>
       <path id="DejaVuSans-65" d="M 3597 1894 
L 3597 1613 
L 953 1613 
Q 991 1019 1311 708 
Q 1631 397 2203 397 
Q 2534 397 2845 478 
Q 3156 559 3463 722 
L 3463 178 
Q 3153 47 2828 -22 
Q 2503 -91 2169 -91 
Q 1331 -91 842 396 
Q 353 884 353 1716 
Q 353 2575 817 3079 
Q 1281 3584 2069 3584 
Q 2775 3584 3186 3129 
Q 3597 2675 3597 1894 
z
M 3022 2063 
Q 3016 2534 2758 2815 
Q 2500 3097 2075 3097 
Q 1594 3097 1305 2825 
Q 1016 2553 972 2059 
L 3022 2063 
z
" transform="scale(0.015625)"/>
       <path id="DejaVuSans-61" d="M 2194 1759 
Q 1497 1759 1228 1600 
Q 959 1441 959 1056 
Q 959 750 1161 570 
Q 1363 391 1709 391 
Q 2188 391 2477 730 
Q 2766 1069 2766 1631 
L 2766 1759 
L 2194 1759 
z
M 3341 1997 
L 3341 0 
L 2766 0 
L 2766 531 
Q 2569 213 2275 61 
Q 1981 -91 1556 -91 
Q 1019 -91 701 211 
Q 384 513 384 1019 
Q 384 1609 779 1909 
Q 1175 2209 1959 2209 
L 2766 2209 
L 2766 2266 
Q 2766 2663 2505 2880 
Q 2244 3097 1772 3097 
Q 1472 3097 1187 3025 
Q 903 2953 641 2809 
L 641 3341 
Q 956 3463 1253 3523 
Q 1550 3584 1831 3584 
Q 2591 3584 2966 3190 
Q 3341 2797 3341 1997 
z
" transform="scale(0.015625)"/>
       <path id="DejaVuSans-64" d="M 2906 2969 
L 2906 4863 
L 3481 4863 
L 3481 0 
L 2906 0 
L 2906 525 
Q 2725 213 2448 61 
Q 2172 -91 1784 -91 
Q 1150 -91 751 415 
Q 353 922 353 1747 
Q 353 2572 751 3078 
Q 1150 3584 1784 3584 
Q 2172 3584 2448 3432 
Q 2725 3281 2906 2969 
z
M 947 1747 
Q 947 1113 1208 752 
Q 1469 391 1925 391 
Q 2381 391 2643 752 
Q 2906 1113 2906 1747 
Q 2906 2381 2643 2742 
Q 2381 3103 1925 3103 
Q 1469 3103 1208 2742 
Q 947 2381 947 1747 
z
" transform="scale(0.015625)"/>
       <path id="DejaVuSans-69" d="M 603 3500 
L 1178 3500 
L 1178 0 
L 603 0 
L 603 3500 
z
M 603 4863 
L 1178 4863 
L 1178 4134 
L 603 4134 
L 603 4863 
z
" transform="scale(0.015625)"/>
       <path id="DejaVuSans-6e" d="M 3513 2113 
L 3513 0 
L 2938 0 
L 2938 2094 
Q 2938 2591 2744 2837 
Q 2550 3084 2163 3084 
Q 1697 3084 1428 2787 
Q 1159 2491 1159 1978 
L 1159 0 
L 581 0 
L 581 3500 
L 1159 3500 
L 1159 2956 
Q 1366 3272 1645 3428 
Q 1925 3584 2291 3584 
Q 2894 3584 3203 3211 
Q 3513 2838 3513 2113 
z
" transform="scale(0.015625)"/>
       <path id="DejaVuSans-67" d="M 2906 1791 
Q 2906 2416 2648 2759 
Q 2391 3103 1925 3103 
Q 1463 3103 1205 2759 
Q 947 2416 947 1791 
Q 947 1169 1205 825 
Q 1463 481 1925 481 
Q 2391 481 2648 825 
Q 2906 1169 2906 1791 
z
M 3481 434 
Q 3481 -459 3084 -895 
Q 2688 -1331 1869 -1331 
Q 1566 -1331 1297 -1286 
Q 1028 -1241 775 -1147 
L 775 -588 
Q 1028 -725 1275 -790 
Q 1522 -856 1778 -856 
Q 2344 -856 2625 -561 
Q 2906 -266 2906 331 
L 2906 616 
Q 2728 306 2450 153 
Q 2172 0 1784 0 
Q 1141 0 747 490 
Q 353 981 353 1791 
Q 353 2603 747 3093 
Q 1141 3584 1784 3584 
Q 2172 3584 2450 3431 
Q 2728 3278 2906 2969 
L 2906 3500 
L 3481 3500 
L 3481 434 
z
" transform="scale(0.015625)"/>
       <path id="DejaVuSans-20" transform="scale(0.015625)"/>
       <path id="DejaVuSans-70" d="M 1159 525 
L 1159 -1331 
L 581 -1331 
L 581 3500 
L 1159 3500 
L 1159 2969 
Q 1341 3281 1617 3432 
Q 1894 3584 2278 3584 
Q 2916 3584 3314 3078 
Q 3713 2572 3713 1747 
Q 3713 922 3314 415 
Q 2916 -91 2278 -91 
Q 1894 -91 1617 61 
Q 1341 213 1159 525 
z
M 3116 1747 
Q 3116 2381 2855 2742 
Q 2594 3103 2138 3103 
Q 1681 3103 1420 2742 
Q 1159 2381 1159 1747 
Q 1159 1113 1420 752 
Q 1681 391 2138 391 
Q 2594 391 2855 752 
Q 3116 1113 3116 1747 
z
" transform="scale(0.015625)"/>
       <path id="DejaVuSans-6f" d="M 1959 3097 
Q 1497 3097 1228 2736 
Q 959 2375 959 1747 
Q 959 1119 1226 758 
Q 1494 397 1959 397 
Q 2419 397 2687 759 
Q 2956 1122 2956 1747 
Q 2956 2369 2687 2733 
Q 2419 3097 1959 3097 
z
M 1959 3584 
Q 2709 3584 3137 3096 
Q 3566 2609 3566 1747 
Q 3566 888 3137 398 
Q 2709 -91 1959 -91 
Q 1206 -91 779 398 
Q 353 888 353 1747 
Q 353 2609 779 3096 
Q 1206 3584 1959 3584 
z
" transform="scale(0.015625)"/>
       <path id="DejaVuSans-6c" d="M 603 4863 
L 1178 4863 
L 1178 0 
L 603 0 
L 603 4863 
z
" transform="scale(0.015625)"/>
       <path id="DejaVuSans-73" d="M 2834 3397 
L 2834 2853 
Q 2591 2978 2328 3040 
Q 2066 3103 1784 3103 
Q 1356 3103 1142 2972 
Q 928 2841 928 2578 
Q 928 2378 1081 2264 
Q 1234 2150 1697 2047 
L 1894 2003 
Q 2506 1872 2764 1633 
Q 3022 1394 3022 966 
Q 3022 478 2636 193 
Q 2250 -91 1575 -91 
Q 1294 -91 989 -36 
Q 684 19 347 128 
L 347 722 
Q 666 556 975 473 
Q 1284 391 1588 391 
Q 1994 391 2212 530 
Q 2431 669 2431 922 
Q 2431 1156 2273 1281 
Q 2116 1406 1581 1522 
L 1381 1569 
Q 847 1681 609 1914 
Q 372 2147 372 2553 
Q 372 3047 722 3315 
Q 1072 3584 1716 3584 
Q 2034 3584 2315 3537 
Q 2597 3491 2834 3397 
z
" transform="scale(0.015625)"/>
       <path id="DejaVuSans-2e" d="M 684 794 
L 1344 794 
L 1344 0 
L 684 0 
L 684 794 
z
" transform="scale(0.015625)"/>
       <path id="DejaVuSans-4d" d="M 628 4666 
L 1569 4666 
L 2759 1491 
L 3956 4666 
L 4897 4666 
L 4897 0 
L 4281 0 
L 4281 4097 
L 3078 897 
L 2444 897 
L 1241 4097 
L 1241 0 
L 628 0 
L 628 4666 
z
" transform="scale(0.015625)"/>
       <path id="DejaVuSans-3a" d="M 750 794 
L 1409 794 
L 1409 0 
L 750 0 
L 750 794 
z
M 750 3309 
L 1409 3309 
L 1409 2516 
L 750 2516 
L 750 3309 
z
" transform="scale(0.015625)"/>
       <path id="DejaVuSans-53" d="M 3425 4513 
L 3425 3897 
Q 3066 4069 2747 4153 
Q 2428 4238 2131 4238 
Q 1616 4238 1336 4038 
Q 1056 3838 1056 3469 
Q 1056 3159 1242 3001 
Q 1428 2844 1947 2747 
L 2328 2669 
Q 3034 2534 3370 2195 
Q 3706 1856 3706 1288 
Q 3706 609 3251 259 
Q 2797 -91 1919 -91 
Q 1588 -91 1214 -16 
Q 841 59 441 206 
L 441 856 
Q 825 641 1194 531 
Q 1563 422 1919 422 
Q 2459 422 2753 634 
Q 3047 847 3047 1241 
Q 3047 1584 2836 1778 
Q 2625 1972 2144 2069 
L 1759 2144 
Q 1053 2284 737 2584 
Q 422 2884 422 3419 
Q 422 4038 858 4394 
Q 1294 4750 2059 4750 
Q 2388 4750 2728 4690 
Q 3069 4631 3425 4513 
z
" transform="scale(0.015625)"/>
       <path id="DejaVuSans-44" d="M 1259 4147 
L 1259 519 
L 2022 519 
Q 2988 519 3436 956 
Q 3884 1394 3884 2338 
Q 3884 3275 3436 3711 
Q 2988 4147 2022 4147 
L 1259 4147 
z
M 628 4666 
L 1925 4666 
Q 3281 4666 3915 4102 
Q 4550 3538 4550 2338 
Q 4550 1131 3912 565 
Q 3275 0 1925 0 
L 628 0 
L 628 4666 
z
" transform="scale(0.015625)"/>
       <path id="DejaVuSans-38" d="M 2034 2216 
Q 1584 2216 1326 1975 
Q 1069 1734 1069 1313 
Q 1069 891 1326 650 
Q 1584 409 2034 409 
Q 2484 409 2743 651 
Q 3003 894 3003 1313 
Q 3003 1734 2745 1975 
Q 2488 2216 2034 2216 
z
M 1403 2484 
Q 997 2584 770 2862 
Q 544 3141 544 3541 
Q 544 4100 942 4425 
Q 1341 4750 2034 4750 
Q 2731 4750 3128 4425 
Q 3525 4100 3525 3541 
Q 3525 3141 3298 2862 
Q 3072 2584 2669 2484 
Q 3125 2378 3379 2068 
Q 3634 1759 3634 1313 
Q 3634 634 3220 271 
Q 2806 -91 2034 -91 
Q 1263 -91 848 271 
Q 434 634 434 1313 
Q 434 1759 690 2068 
Q 947 2378 1403 2484 
z
M 1172 3481 
Q 1172 3119 1398 2916 
Q 1625 2713 2034 2713 
Q 2441 2713 2670 2916 
Q 2900 3119 2900 3481 
Q 2900 3844 2670 4047 
Q 2441 4250 2034 4250 
Q 1625 4250 1398 4047 
Q 1172 3844 1172 3481 
z
" transform="scale(0.015625)"/>
      </defs>
      <use xlink:href="#DejaVuSans-4c"/>
      <use xlink:href="#DejaVuSans-65" x="53.962891"/>
      <use xlink:href="#DejaVuSans-61" x="115.486328"/>
      <use xlink:href="#DejaVuSans-64" x="176.765625"/>
      <use xlink:href="#DejaVuSans-69" x="240.242188"/>
      <use xlink:href="#DejaVuSans-6e" x="268.025391"/>
      <use xlink:href="#DejaVuSans-67" x="331.404297"/>
      <use xlink:href="#DejaVuSans-20" x="394.880859"/>
      <use xlink:href="#DejaVuSans-70" x="426.667969"/>
      <use xlink:href="#DejaVuSans-6f" x="490.144531"/>
      <use xlink:href="#DejaVuSans-6c" x="551.326172"/>
      <use xlink:href="#DejaVuSans-65" x="579.109375"/>
      <use xlink:href="#DejaVuSans-73" x="640.632812"/>
      <use xlink:href="#DejaVuSans-2e" x="692.732422"/>
      <use xlink:href="#DejaVuSans-20" x="724.519531"/>
      <use xlink:href="#DejaVuSans-4d" x="756.306641"/>
      <use xlink:href="#DejaVuSans-65" x="842.585938"/>
      <use xlink:href="#DejaVuSans-61" x="904.109375"/>
      <use xlink:href="#DejaVuSans-6e" x="965.388672"/>
      <use xlink:href="#DejaVuSans-3a" x="1028.767578"/>
      <use xlink:href="#DejaVuSans-20" x="1062.458984"/>
      <use xlink:href="#DejaVuSans-31" x="1094.246094"/>
      <use xlink:href="#DejaVuSans-36" x="1157.869141"/>
      <use xlink:href="#DejaVuSans-2e" x="1221.492188"/>
      <use xlink:href="#DejaVuSans-37" x="1253.279297"/>
      <use xlink:href="#DejaVuSans-36" x="1316.902344"/>
      <use xlink:href="#DejaVuSans-2e" x="1380.525391"/>
      <use xlink:href="#DejaVuSans-20" x="1412.3125"/>
      <use xlink:href="#DejaVuSans-53" x="1444.099609"/>
      <use xlink:href="#DejaVuSans-44" x="1507.576172"/>
      <use xlink:href="#DejaVuSans-3a" x="1584.578125"/>
      <use xlink:href="#DejaVuSans-20" x="1618.269531"/>
      <use xlink:href="#DejaVuSans-38" x="1650.056641"/>
      <use xlink:href="#DejaVuSans-2e" x="1713.679688"/>
      <use xlink:href="#DejaVuSans-34" x="1745.466797"/>
      <use xlink:href="#DejaVuSans-35" x="1809.089844"/>
     </g>
     <!-- Lagging poles. Mean: 0.73. SD: 1.05 -->
     <g transform="translate(118.023281 341.341875) scale(0.1 -0.1)">
      <use xlink:href="#DejaVuSans-4c"/>
      <use xlink:href="#DejaVuSans-61" x="55.712891"/>
      <use xlink:href="#DejaVuSans-67" x="116.992188"/>
      <use xlink:href="#DejaVuSans-67" x="180.46875"/>
      <use xlink:href="#DejaVuSans-69" x="243.945312"/>
      <use xlink:href="#DejaVuSans-6e" x="271.728516"/>
      <use xlink:href="#DejaVuSans-67" x="335.107422"/>
      <use xlink:href="#DejaVuSans-20" x="398.583984"/>
      <use xlink:href="#DejaVuSans-70" x="430.371094"/>
      <use xlink:href="#DejaVuSans-6f" x="493.847656"/>
      <use xlink:href="#DejaVuSans-6c" x="555.029297"/>
      <use xlink:href="#DejaVuSans-65" x="582.8125"/>
      <use xlink:href="#DejaVuSans-73" x="644.335938"/>
      <use xlink:href="#DejaVuSans-2e" x="696.435547"/>
      <use xlink:href="#DejaVuSans-20" x="728.222656"/>
      <use xlink:href="#DejaVuSans-4d" x="760.009766"/>
      <use xlink:href="#DejaVuSans-65" x="846.289062"/>
      <use xlink:href="#DejaVuSans-61" x="907.8125"/>
      <use xlink:href="#DejaVuSans-6e" x="969.091797"/>
      <use xlink:href="#DejaVuSans-3a" x="1032.470703"/>
      <use xlink:href="#DejaVuSans-20" x="1066.162109"/>
      <use xlink:href="#DejaVuSans-30" x="1097.949219"/>
      <use xlink:href="#DejaVuSans-2e" x="1161.572266"/>
      <use xlink:href="#DejaVuSans-37" x="1193.359375"/>
      <use xlink:href="#DejaVuSans-33" x="1256.982422"/>
      <use xlink:href="#DejaVuSans-2e" x="1320.605469"/>
      <use xlink:href="#DejaVuSans-20" x="1352.392578"/>
      <use xlink:href="#DejaVuSans-53" x="1384.179688"/>
      <use xlink:href="#DejaVuSans-44" x="1447.65625"/>
      <use xlink:href="#DejaVuSans-3a" x="1524.658203"/>
      <use xlink:href="#DejaVuSans-20" x="1558.349609"/>
      <use xlink:href="#DejaVuSans-31" x="1590.136719"/>
      <use xlink:href="#DejaVuSans-2e" x="1653.759766"/>
      <use xlink:href="#DejaVuSans-30" x="1685.546875"/>
      <use xlink:href="#DejaVuSans-35" x="1749.169922"/>
     </g>
    </g>
   </g>
   <g id="matplotlib.axis_2">
    <g id="ytick_1">
     <g id="line2d_10">
      <defs>
       <path id="m2df611988e" d="M 0 0 
L -3.5 0 
" style="stroke: #000000; stroke-width: 0.8"/>
      </defs>
      <g>
       <use xlink:href="#m2df611988e" x="30.103125" y="301.8675" style="stroke: #000000; stroke-width: 0.8"/>
      </g>
     </g>
     <g id="text_11">
      <!-- 0.0 -->
      <g transform="translate(7.2 305.666719) scale(0.1 -0.1)">
       <use xlink:href="#DejaVuSans-30"/>
       <use xlink:href="#DejaVuSans-2e" x="63.623047"/>
       <use xlink:href="#DejaVuSans-30" x="95.410156"/>
      </g>
     </g>
    </g>
    <g id="ytick_2">
     <g id="line2d_11">
      <g>
       <use xlink:href="#m2df611988e" x="30.103125" y="246.4275" style="stroke: #000000; stroke-width: 0.8"/>
      </g>
     </g>
     <g id="text_12">
      <!-- 0.5 -->
      <g transform="translate(7.2 250.226719) scale(0.1 -0.1)">
       <use xlink:href="#DejaVuSans-30"/>
       <use xlink:href="#DejaVuSans-2e" x="63.623047"/>
       <use xlink:href="#DejaVuSans-35" x="95.410156"/>
      </g>
     </g>
    </g>
    <g id="ytick_3">
     <g id="line2d_12">
      <g>
       <use xlink:href="#m2df611988e" x="30.103125" y="190.9875" style="stroke: #000000; stroke-width: 0.8"/>
      </g>
     </g>
     <g id="text_13">
      <!-- 1.0 -->
      <g transform="translate(7.2 194.786719) scale(0.1 -0.1)">
       <use xlink:href="#DejaVuSans-31"/>
       <use xlink:href="#DejaVuSans-2e" x="63.623047"/>
       <use xlink:href="#DejaVuSans-30" x="95.410156"/>
      </g>
     </g>
    </g>
    <g id="ytick_4">
     <g id="line2d_13">
      <g>
       <use xlink:href="#m2df611988e" x="30.103125" y="135.5475" style="stroke: #000000; stroke-width: 0.8"/>
      </g>
     </g>
     <g id="text_14">
      <!-- 1.5 -->
      <g transform="translate(7.2 139.346719) scale(0.1 -0.1)">
       <use xlink:href="#DejaVuSans-31"/>
       <use xlink:href="#DejaVuSans-2e" x="63.623047"/>
       <use xlink:href="#DejaVuSans-35" x="95.410156"/>
      </g>
     </g>
    </g>
    <g id="ytick_5">
     <g id="line2d_14">
      <g>
       <use xlink:href="#m2df611988e" x="30.103125" y="80.1075" style="stroke: #000000; stroke-width: 0.8"/>
      </g>
     </g>
     <g id="text_15">
      <!-- 2.0 -->
      <g transform="translate(7.2 83.906719) scale(0.1 -0.1)">
       <use xlink:href="#DejaVuSans-32"/>
       <use xlink:href="#DejaVuSans-2e" x="63.623047"/>
       <use xlink:href="#DejaVuSans-30" x="95.410156"/>
      </g>
     </g>
    </g>
   </g>
   <g id="line2d_15">
    <path d="M 62.358177 301.758991 
L 137.925858 301.499132 
L 196.700721 301.085681 
L 255.475584 300.444617 
L 319.848053 299.51222 
L 398.604375 298.217301 
L 398.604375 298.217301 
" clip-path="url(#p1a0b106187)" style="fill: none; stroke: #000000; stroke-width: 1.5; stroke-linecap: square"/>
   </g>
   <g id="line2d_16">
    <path d="M 62.358177 296.260984 
L 65.15698 293.435058 
L 67.955783 288.924199 
L 70.754586 281.684389 
L 73.553389 270.237613 
L 76.352192 253.069355 
L 79.150995 230.096602 
L 81.949798 204.881997 
L 84.748601 184.36268 
L 87.547404 174.036827 
L 90.346207 174.228076 
L 93.14501 181.691017 
L 95.943813 192.787609 
L 101.541419 216.772951 
L 104.340222 227.576806 
L 107.139025 237.145718 
L 109.937828 245.476388 
L 112.736631 252.664211 
L 115.535434 258.840203 
L 118.334237 264.140143 
L 121.13304 268.690708 
L 123.931843 272.604235 
L 126.730646 275.97767 
L 129.529449 278.893427 
L 132.328252 281.420991 
L 135.127055 283.618707 
L 137.925858 285.535491 
L 140.724661 287.212357 
L 143.523464 288.68374 
L 146.322267 289.9786 
L 149.12107 291.121357 
L 154.718676 293.029987 
L 160.316282 294.540105 
L 165.913888 295.746536 
L 171.511494 296.719017 
L 177.1091 297.509431 
L 185.505509 298.436414 
L 193.901918 299.134192 
L 205.09713 299.815855 
L 219.091145 300.400893 
L 235.883963 300.858577 
L 258.274387 301.229283 
L 289.06122 301.505871 
L 339.439674 301.706972 
L 398.604375 301.796639 
L 398.604375 301.796639 
" clip-path="url(#p1a0b106187)" style="fill: none; stroke: #000000; stroke-width: 1.5; stroke-linecap: square"/>
   </g>
   <g id="line2d_17">
    <path d="M 230.286357 301.8675 
L 230.286357 35.7555 
" clip-path="url(#p1a0b106187)" style="fill: none; stroke: #ff0000; stroke-width: 1.5; stroke-linecap: square"/>
   </g>
   <g id="patch_82">
    <path d="M 30.103125 301.8675 
L 30.103125 35.7555 
" style="fill: none; stroke: #000000; stroke-width: 0.8; stroke-linejoin: miter; stroke-linecap: square"/>
   </g>
   <g id="patch_83">
    <path d="M 387.223125 301.8675 
L 387.223125 35.7555 
" style="fill: none; stroke: #000000; stroke-width: 0.8; stroke-linejoin: miter; stroke-linecap: square"/>
   </g>
   <g id="patch_84">
    <path d="M 30.103125 301.8675 
L 387.223125 301.8675 
" style="fill: none; stroke: #000000; stroke-width: 0.8; stroke-linejoin: miter; stroke-linecap: square"/>
   </g>
   <g id="patch_85">
    <path d="M 30.103125 35.7555 
L 387.223125 35.7555 
" style="fill: none; stroke: #000000; stroke-width: 0.8; stroke-linejoin: miter; stroke-linecap: square"/>
   </g>
   <g id="text_16">
    <!-- Distribution of leading pole and lagging pole fluo means -->
    <g transform="translate(39.898125 16.318125) scale(0.12 -0.12)">
     <defs>
      <path id="DejaVuSans-74" d="M 1172 4494 
L 1172 3500 
L 2356 3500 
L 2356 3053 
L 1172 3053 
L 1172 1153 
Q 1172 725 1289 603 
Q 1406 481 1766 481 
L 2356 481 
L 2356 0 
L 1766 0 
Q 1100 0 847 248 
Q 594 497 594 1153 
L 594 3053 
L 172 3053 
L 172 3500 
L 594 3500 
L 594 4494 
L 1172 4494 
z
" transform="scale(0.015625)"/>
      <path id="DejaVuSans-72" d="M 2631 2963 
Q 2534 3019 2420 3045 
Q 2306 3072 2169 3072 
Q 1681 3072 1420 2755 
Q 1159 2438 1159 1844 
L 1159 0 
L 581 0 
L 581 3500 
L 1159 3500 
L 1159 2956 
Q 1341 3275 1631 3429 
Q 1922 3584 2338 3584 
Q 2397 3584 2469 3576 
Q 2541 3569 2628 3553 
L 2631 2963 
z
" transform="scale(0.015625)"/>
      <path id="DejaVuSans-62" d="M 3116 1747 
Q 3116 2381 2855 2742 
Q 2594 3103 2138 3103 
Q 1681 3103 1420 2742 
Q 1159 2381 1159 1747 
Q 1159 1113 1420 752 
Q 1681 391 2138 391 
Q 2594 391 2855 752 
Q 3116 1113 3116 1747 
z
M 1159 2969 
Q 1341 3281 1617 3432 
Q 1894 3584 2278 3584 
Q 2916 3584 3314 3078 
Q 3713 2572 3713 1747 
Q 3713 922 3314 415 
Q 2916 -91 2278 -91 
Q 1894 -91 1617 61 
Q 1341 213 1159 525 
L 1159 0 
L 581 0 
L 581 4863 
L 1159 4863 
L 1159 2969 
z
" transform="scale(0.015625)"/>
      <path id="DejaVuSans-75" d="M 544 1381 
L 544 3500 
L 1119 3500 
L 1119 1403 
Q 1119 906 1312 657 
Q 1506 409 1894 409 
Q 2359 409 2629 706 
Q 2900 1003 2900 1516 
L 2900 3500 
L 3475 3500 
L 3475 0 
L 2900 0 
L 2900 538 
Q 2691 219 2414 64 
Q 2138 -91 1772 -91 
Q 1169 -91 856 284 
Q 544 659 544 1381 
z
M 1991 3584 
L 1991 3584 
z
" transform="scale(0.015625)"/>
      <path id="DejaVuSans-66" d="M 2375 4863 
L 2375 4384 
L 1825 4384 
Q 1516 4384 1395 4259 
Q 1275 4134 1275 3809 
L 1275 3500 
L 2222 3500 
L 2222 3053 
L 1275 3053 
L 1275 0 
L 697 0 
L 697 3053 
L 147 3053 
L 147 3500 
L 697 3500 
L 697 3744 
Q 697 4328 969 4595 
Q 1241 4863 1831 4863 
L 2375 4863 
z
" transform="scale(0.015625)"/>
      <path id="DejaVuSans-6d" d="M 3328 2828 
Q 3544 3216 3844 3400 
Q 4144 3584 4550 3584 
Q 5097 3584 5394 3201 
Q 5691 2819 5691 2113 
L 5691 0 
L 5113 0 
L 5113 2094 
Q 5113 2597 4934 2840 
Q 4756 3084 4391 3084 
Q 3944 3084 3684 2787 
Q 3425 2491 3425 1978 
L 3425 0 
L 2847 0 
L 2847 2094 
Q 2847 2600 2669 2842 
Q 2491 3084 2119 3084 
Q 1678 3084 1418 2786 
Q 1159 2488 1159 1978 
L 1159 0 
L 581 0 
L 581 3500 
L 1159 3500 
L 1159 2956 
Q 1356 3278 1631 3431 
Q 1906 3584 2284 3584 
Q 2666 3584 2933 3390 
Q 3200 3197 3328 2828 
z
" transform="scale(0.015625)"/>
     </defs>
     <use xlink:href="#DejaVuSans-44"/>
     <use xlink:href="#DejaVuSans-69" x="77.001953"/>
     <use xlink:href="#DejaVuSans-73" x="104.785156"/>
     <use xlink:href="#DejaVuSans-74" x="156.884766"/>
     <use xlink:href="#DejaVuSans-72" x="196.09375"/>
     <use xlink:href="#DejaVuSans-69" x="237.207031"/>
     <use xlink:href="#DejaVuSans-62" x="264.990234"/>
     <use xlink:href="#DejaVuSans-75" x="328.466797"/>
     <use xlink:href="#DejaVuSans-74" x="391.845703"/>
     <use xlink:href="#DejaVuSans-69" x="431.054688"/>
     <use xlink:href="#DejaVuSans-6f" x="458.837891"/>
     <use xlink:href="#DejaVuSans-6e" x="520.019531"/>
     <use xlink:href="#DejaVuSans-20" x="583.398438"/>
     <use xlink:href="#DejaVuSans-6f" x="615.185547"/>
     <use xlink:href="#DejaVuSans-66" x="676.367188"/>
     <use xlink:href="#DejaVuSans-20" x="711.572266"/>
     <use xlink:href="#DejaVuSans-6c" x="743.359375"/>
     <use xlink:href="#DejaVuSans-65" x="771.142578"/>
     <use xlink:href="#DejaVuSans-61" x="832.666016"/>
     <use xlink:href="#DejaVuSans-64" x="893.945312"/>
     <use xlink:href="#DejaVuSans-69" x="957.421875"/>
     <use xlink:href="#DejaVuSans-6e" x="985.205078"/>
     <use xlink:href="#DejaVuSans-67" x="1048.583984"/>
     <use xlink:href="#DejaVuSans-20" x="1112.060547"/>
     <use xlink:href="#DejaVuSans-70" x="1143.847656"/>
     <use xlink:href="#DejaVuSans-6f" x="1207.324219"/>
     <use xlink:href="#DejaVuSans-6c" x="1268.505859"/>
     <use xlink:href="#DejaVuSans-65" x="1296.289062"/>
     <use xlink:href="#DejaVuSans-20" x="1357.8125"/>
     <use xlink:href="#DejaVuSans-61" x="1389.599609"/>
     <use xlink:href="#DejaVuSans-6e" x="1450.878906"/>
     <use xlink:href="#DejaVuSans-64" x="1514.257812"/>
     <use xlink:href="#DejaVuSans-20" x="1577.734375"/>
     <use xlink:href="#DejaVuSans-6c" x="1609.521484"/>
     <use xlink:href="#DejaVuSans-61" x="1637.304688"/>
     <use xlink:href="#DejaVuSans-67" x="1698.583984"/>
     <use xlink:href="#DejaVuSans-67" x="1762.060547"/>
     <use xlink:href="#DejaVuSans-69" x="1825.537109"/>
     <use xlink:href="#DejaVuSans-6e" x="1853.320312"/>
     <use xlink:href="#DejaVuSans-67" x="1916.699219"/>
     <use xlink:href="#DejaVuSans-20" x="1980.175781"/>
     <use xlink:href="#DejaVuSans-70" x="2011.962891"/>
     <use xlink:href="#DejaVuSans-6f" x="2075.439453"/>
     <use xlink:href="#DejaVuSans-6c" x="2136.621094"/>
     <use xlink:href="#DejaVuSans-65" x="2164.404297"/>
     <use xlink:href="#DejaVuSans-20" x="2225.927734"/>
     <use xlink:href="#DejaVuSans-66" x="2257.714844"/>
     <use xlink:href="#DejaVuSans-6c" x="2292.919922"/>
     <use xlink:href="#DejaVuSans-75" x="2320.703125"/>
     <use xlink:href="#DejaVuSans-6f" x="2384.082031"/>
     <use xlink:href="#DejaVuSans-20" x="2445.263672"/>
     <use xlink:href="#DejaVuSans-6d" x="2477.050781"/>
     <use xlink:href="#DejaVuSans-65" x="2574.462891"/>
     <use xlink:href="#DejaVuSans-61" x="2635.986328"/>
     <use xlink:href="#DejaVuSans-6e" x="2697.265625"/>
     <use xlink:href="#DejaVuSans-73" x="2760.644531"/>
    </g>
    <!--  and pole_on_thresh recommendation -->
    <g transform="translate(95.079375 29.7555) scale(0.12 -0.12)">
     <defs>
      <path id="DejaVuSans-5f" d="M 3263 -1063 
L 3263 -1509 
L -63 -1509 
L -63 -1063 
L 3263 -1063 
z
" transform="scale(0.015625)"/>
      <path id="DejaVuSans-68" d="M 3513 2113 
L 3513 0 
L 2938 0 
L 2938 2094 
Q 2938 2591 2744 2837 
Q 2550 3084 2163 3084 
Q 1697 3084 1428 2787 
Q 1159 2491 1159 1978 
L 1159 0 
L 581 0 
L 581 4863 
L 1159 4863 
L 1159 2956 
Q 1366 3272 1645 3428 
Q 1925 3584 2291 3584 
Q 2894 3584 3203 3211 
Q 3513 2838 3513 2113 
z
" transform="scale(0.015625)"/>
      <path id="DejaVuSans-63" d="M 3122 3366 
L 3122 2828 
Q 2878 2963 2633 3030 
Q 2388 3097 2138 3097 
Q 1578 3097 1268 2742 
Q 959 2388 959 1747 
Q 959 1106 1268 751 
Q 1578 397 2138 397 
Q 2388 397 2633 464 
Q 2878 531 3122 666 
L 3122 134 
Q 2881 22 2623 -34 
Q 2366 -91 2075 -91 
Q 1284 -91 818 406 
Q 353 903 353 1747 
Q 353 2603 823 3093 
Q 1294 3584 2113 3584 
Q 2378 3584 2631 3529 
Q 2884 3475 3122 3366 
z
" transform="scale(0.015625)"/>
     </defs>
     <use xlink:href="#DejaVuSans-20"/>
     <use xlink:href="#DejaVuSans-61" x="31.787109"/>
     <use xlink:href="#DejaVuSans-6e" x="93.066406"/>
     <use xlink:href="#DejaVuSans-64" x="156.445312"/>
     <use xlink:href="#DejaVuSans-20" x="219.921875"/>
     <use xlink:href="#DejaVuSans-70" x="251.708984"/>
     <use xlink:href="#DejaVuSans-6f" x="315.185547"/>
     <use xlink:href="#DejaVuSans-6c" x="376.367188"/>
     <use xlink:href="#DejaVuSans-65" x="404.150391"/>
     <use xlink:href="#DejaVuSans-5f" x="465.673828"/>
     <use xlink:href="#DejaVuSans-6f" x="515.673828"/>
     <use xlink:href="#DejaVuSans-6e" x="576.855469"/>
     <use xlink:href="#DejaVuSans-5f" x="640.234375"/>
     <use xlink:href="#DejaVuSans-74" x="690.234375"/>
     <use xlink:href="#DejaVuSans-68" x="729.443359"/>
     <use xlink:href="#DejaVuSans-72" x="792.822266"/>
     <use xlink:href="#DejaVuSans-65" x="831.685547"/>
     <use xlink:href="#DejaVuSans-73" x="893.208984"/>
     <use xlink:href="#DejaVuSans-68" x="945.308594"/>
     <use xlink:href="#DejaVuSans-20" x="1008.6875"/>
     <use xlink:href="#DejaVuSans-72" x="1040.474609"/>
     <use xlink:href="#DejaVuSans-65" x="1079.337891"/>
     <use xlink:href="#DejaVuSans-63" x="1140.861328"/>
     <use xlink:href="#DejaVuSans-6f" x="1195.841797"/>
     <use xlink:href="#DejaVuSans-6d" x="1257.023438"/>
     <use xlink:href="#DejaVuSans-6d" x="1354.435547"/>
     <use xlink:href="#DejaVuSans-65" x="1451.847656"/>
     <use xlink:href="#DejaVuSans-6e" x="1513.371094"/>
     <use xlink:href="#DejaVuSans-64" x="1576.75"/>
     <use xlink:href="#DejaVuSans-61" x="1640.226562"/>
     <use xlink:href="#DejaVuSans-74" x="1701.505859"/>
     <use xlink:href="#DejaVuSans-69" x="1740.714844"/>
     <use xlink:href="#DejaVuSans-6f" x="1768.498047"/>
     <use xlink:href="#DejaVuSans-6e" x="1829.679688"/>
    </g>
   </g>
   <g id="legend_1">
    <g id="patch_86">
     <path d="M 177.97 88.068 
L 380.223125 88.068 
Q 382.223125 88.068 382.223125 86.068 
L 382.223125 42.7555 
Q 382.223125 40.7555 380.223125 40.7555 
L 177.97 40.7555 
Q 175.97 40.7555 175.97 42.7555 
L 175.97 86.068 
Q 175.97 88.068 177.97 88.068 
z
" style="fill: #ffffff; opacity: 0.8; stroke: #cccccc; stroke-linejoin: miter"/>
    </g>
    <g id="patch_87">
     <path d="M 179.97 52.353937 
L 199.97 52.353937 
L 199.97 45.353937 
L 179.97 45.353937 
z
" style="fill: #1f77b4; opacity: 0.7"/>
    </g>
    <g id="text_17">
     <!-- leading poles -->
     <g transform="translate(207.97 52.353937) scale(0.1 -0.1)">
      <use xlink:href="#DejaVuSans-6c"/>
      <use xlink:href="#DejaVuSans-65" x="27.783203"/>
      <use xlink:href="#DejaVuSans-61" x="89.306641"/>
      <use xlink:href="#DejaVuSans-64" x="150.585938"/>
      <use xlink:href="#DejaVuSans-69" x="214.0625"/>
      <use xlink:href="#DejaVuSans-6e" x="241.845703"/>
      <use xlink:href="#DejaVuSans-67" x="305.224609"/>
      <use xlink:href="#DejaVuSans-20" x="368.701172"/>
      <use xlink:href="#DejaVuSans-70" x="400.488281"/>
      <use xlink:href="#DejaVuSans-6f" x="463.964844"/>
      <use xlink:href="#DejaVuSans-6c" x="525.146484"/>
      <use xlink:href="#DejaVuSans-65" x="552.929688"/>
      <use xlink:href="#DejaVuSans-73" x="614.453125"/>
     </g>
    </g>
    <g id="patch_88">
     <path d="M 179.97 67.032062 
L 199.97 67.032062 
L 199.97 60.032062 
L 179.97 60.032062 
z
" style="fill: #ff7f0e; opacity: 0.6"/>
    </g>
    <g id="text_18">
     <!-- lagging poles -->
     <g transform="translate(207.97 67.032062) scale(0.1 -0.1)">
      <use xlink:href="#DejaVuSans-6c"/>
      <use xlink:href="#DejaVuSans-61" x="27.783203"/>
      <use xlink:href="#DejaVuSans-67" x="89.0625"/>
      <use xlink:href="#DejaVuSans-67" x="152.539062"/>
      <use xlink:href="#DejaVuSans-69" x="216.015625"/>
      <use xlink:href="#DejaVuSans-6e" x="243.798828"/>
      <use xlink:href="#DejaVuSans-67" x="307.177734"/>
      <use xlink:href="#DejaVuSans-20" x="370.654297"/>
      <use xlink:href="#DejaVuSans-70" x="402.441406"/>
      <use xlink:href="#DejaVuSans-6f" x="465.917969"/>
      <use xlink:href="#DejaVuSans-6c" x="527.099609"/>
      <use xlink:href="#DejaVuSans-65" x="554.882812"/>
      <use xlink:href="#DejaVuSans-73" x="616.40625"/>
     </g>
    </g>
    <g id="line2d_18">
     <path d="M 179.97 78.210187 
L 189.97 78.210187 
L 199.97 78.210187 
" style="fill: none; stroke: #ff0000; stroke-width: 1.5; stroke-linecap: square"/>
    </g>
    <g id="text_19">
     <!-- suggestion pole_on_thresh: [3.48] -->
     <g transform="translate(207.97 81.710187) scale(0.1 -0.1)">
      <defs>
       <path id="DejaVuSans-5b" d="M 550 4863 
L 1875 4863 
L 1875 4416 
L 1125 4416 
L 1125 -397 
L 1875 -397 
L 1875 -844 
L 550 -844 
L 550 4863 
z
" transform="scale(0.015625)"/>
       <path id="DejaVuSans-5d" d="M 1947 4863 
L 1947 -844 
L 622 -844 
L 622 -397 
L 1369 -397 
L 1369 4416 
L 622 4416 
L 622 4863 
L 1947 4863 
z
" transform="scale(0.015625)"/>
      </defs>
      <use xlink:href="#DejaVuSans-73"/>
      <use xlink:href="#DejaVuSans-75" x="52.099609"/>
      <use xlink:href="#DejaVuSans-67" x="115.478516"/>
      <use xlink:href="#DejaVuSans-67" x="178.955078"/>
      <use xlink:href="#DejaVuSans-65" x="242.431641"/>
      <use xlink:href="#DejaVuSans-73" x="303.955078"/>
      <use xlink:href="#DejaVuSans-74" x="356.054688"/>
      <use xlink:href="#DejaVuSans-69" x="395.263672"/>
      <use xlink:href="#DejaVuSans-6f" x="423.046875"/>
      <use xlink:href="#DejaVuSans-6e" x="484.228516"/>
      <use xlink:href="#DejaVuSans-20" x="547.607422"/>
      <use xlink:href="#DejaVuSans-70" x="579.394531"/>
      <use xlink:href="#DejaVuSans-6f" x="642.871094"/>
      <use xlink:href="#DejaVuSans-6c" x="704.052734"/>
      <use xlink:href="#DejaVuSans-65" x="731.835938"/>
      <use xlink:href="#DejaVuSans-5f" x="793.359375"/>
      <use xlink:href="#DejaVuSans-6f" x="843.359375"/>
      <use xlink:href="#DejaVuSans-6e" x="904.541016"/>
      <use xlink:href="#DejaVuSans-5f" x="967.919922"/>
      <use xlink:href="#DejaVuSans-74" x="1017.919922"/>
      <use xlink:href="#DejaVuSans-68" x="1057.128906"/>
      <use xlink:href="#DejaVuSans-72" x="1120.507812"/>
      <use xlink:href="#DejaVuSans-65" x="1159.371094"/>
      <use xlink:href="#DejaVuSans-73" x="1220.894531"/>
      <use xlink:href="#DejaVuSans-68" x="1272.994141"/>
      <use xlink:href="#DejaVuSans-3a" x="1336.373047"/>
      <use xlink:href="#DejaVuSans-20" x="1370.064453"/>
      <use xlink:href="#DejaVuSans-5b" x="1401.851562"/>
      <use xlink:href="#DejaVuSans-33" x="1440.865234"/>
      <use xlink:href="#DejaVuSans-2e" x="1504.488281"/>
      <use xlink:href="#DejaVuSans-34" x="1536.275391"/>
      <use xlink:href="#DejaVuSans-38" x="1599.898438"/>
      <use xlink:href="#DejaVuSans-5d" x="1663.521484"/>
     </g>
    </g>
   </g>
  </g>
 </g>
 <defs>
  <clipPath id="p1a0b106187">
   <rect x="30.103125" y="35.7555" width="357.12" height="266.112"/>
  </clipPath>
 </defs>
</svg>
