<?xml version="1.0" encoding="utf-8" standalone="no"?>
<!DOCTYPE svg PUBLIC "-//W3C//DTD SVG 1.1//EN"
  "http://www.w3.org/Graphics/SVG/1.1/DTD/svg11.dtd">
<svg xmlns:xlink="http://www.w3.org/1999/xlink" width="577.0125pt" height="533.528333pt" viewBox="0 0 577.0125 533.528333" xmlns="http://www.w3.org/2000/svg" version="1.1">
 <metadata>
  <rdf:RDF xmlns:dc="http://purl.org/dc/elements/1.1/" xmlns:cc="http://creativecommons.org/ns#" xmlns:rdf="http://www.w3.org/1999/02/22-rdf-syntax-ns#">
   <cc:Work>
    <dc:type rdf:resource="http://purl.org/dc/dcmitype/StillImage"/>
    <dc:date>2024-02-08T15:01:45.471910</dc:date>
    <dc:format>image/svg+xml</dc:format>
    <dc:creator>
     <cc:Agent>
      <dc:title>Matplotlib v3.6.3, https://matplotlib.org/</dc:title>
     </cc:Agent>
    </dc:creator>
   </cc:Work>
  </rdf:RDF>
 </metadata>
 <defs>
  <style type="text/css">*{stroke-linejoin: round; stroke-linecap: butt}</style>
 </defs>
 <g id="figure_1">
  <g id="patch_1">
   <path d="M 0 533.528333 
L 577.0125 533.528333 
L 577.0125 0 
L 0 0 
z
" style="fill: #ffffff"/>
  </g>
  <g id="axes_1">
   <g id="patch_2">
    <path d="M 102.208333 450.72 
L 548.608333 450.72 
L 548.608333 7.2 
L 102.208333 7.2 
z
" style="fill: #ffffff"/>
   </g>
   <g id="line2d_1">
    <path d="M 128.992333 27.36 
L 133.456333 48.574976 
L 137.920333 68.06116 
L 142.384333 86.022343 
L 146.848333 102.631323 
L 151.312333 118.035618 
L 155.776333 132.36195 
L 160.240333 145.719806 
L 164.704333 158.204287 
L 169.168333 169.8984 
L 173.632333 180.874936 
L 178.096333 191.197993 
L 182.560333 200.924243 
L 187.024333 210.103983 
L 191.488333 218.782002 
L 195.952333 226.998323 
L 200.416333 234.788819 
L 204.880333 242.185737 
L 209.344333 249.218147 
L 213.808333 255.912325 
L 218.272333 262.292079 
L 222.736333 268.379036 
L 227.200333 274.192881 
L 231.664333 279.751576 
L 236.128333 285.071539 
L 240.592333 290.167812 
L 245.056333 295.054198 
L 249.520333 299.743389 
L 253.984333 304.247074 
L 258.448333 308.576035 
L 262.912333 312.740237 
L 267.376333 316.748899 
L 271.840333 320.610568 
L 276.304333 324.333174 
L 280.768333 327.924089 
L 285.232333 331.390172 
L 289.696333 334.737814 
L 294.160333 337.972979 
L 298.624333 341.101235 
L 303.088333 344.12779 
L 307.552333 347.05752 
L 312.016333 349.894993 
L 316.480333 352.644496 
L 320.944333 355.310052 
L 325.408333 357.895445 
L 329.872333 360.404233 
L 334.336333 362.83977 
L 338.800333 365.205214 
L 343.264333 367.503544 
L 347.728333 369.737575 
L 352.192333 371.909966 
L 356.656333 374.02323 
L 361.120333 376.079748 
L 365.584333 378.081771 
L 370.048333 380.031437 
L 374.512333 381.930771 
L 378.976333 383.781696 
L 383.440333 385.586037 
L 387.904333 387.34553 
L 392.368333 389.061825 
L 396.832333 390.736493 
L 401.296333 392.371028 
L 405.760333 393.966856 
L 410.224333 395.525333 
L 414.688333 397.047755 
L 419.152333 398.535359 
L 423.616333 399.989323 
L 428.080333 401.410777 
L 432.544333 402.800796 
L 437.008333 404.160413 
L 441.472333 405.490612 
L 445.936333 406.792338 
L 450.400333 408.066494 
L 454.864333 409.313948 
L 459.328333 410.535528 
L 463.792333 411.732032 
L 468.256333 412.904223 
L 472.720333 414.052833 
L 477.184333 415.178568 
L 481.648333 416.282103 
L 486.112333 417.364089 
L 490.576333 418.42515 
L 495.040333 419.465886 
L 499.504333 420.486876 
L 503.968333 421.488677 
L 508.432333 422.471824 
L 512.896333 423.436833 
L 517.360333 424.384201 
L 521.824333 425.314407 
L 526.288333 426.227913 
L 530.752333 427.125164 
L 535.216333 428.006591 
L 539.680333 428.872608 
L 544.144333 429.723615 
L 548.608333 430.56 
" clip-path="url(#pc1520b4947)" style="fill: none; stroke: #000000; stroke-width: 2; stroke-linecap: square"/>
   </g>
   <g id="PathCollection_1">
    <defs>
     <path id="m344f935fdf" d="M -0 2.5 
L 2.5 -2.5 
L -2.5 -2.5 
z
" style="stroke: #0000ff; stroke-opacity: 0.5"/>
    </defs>
    <g clip-path="url(#pc1520b4947)">
     <use xlink:href="#m344f935fdf" x="365.584333" y="378.081771" style="fill: #0000ff; fill-opacity: 0.5; stroke: #0000ff; stroke-opacity: 0.5"/>
     <use xlink:href="#m344f935fdf" x="370.048333" y="380.031437" style="fill: #0000ff; fill-opacity: 0.5; stroke: #0000ff; stroke-opacity: 0.5"/>
     <use xlink:href="#m344f935fdf" x="374.512333" y="381.930771" style="fill: #0000ff; fill-opacity: 0.5; stroke: #0000ff; stroke-opacity: 0.5"/>
     <use xlink:href="#m344f935fdf" x="378.976333" y="383.781696" style="fill: #0000ff; fill-opacity: 0.5; stroke: #0000ff; stroke-opacity: 0.5"/>
     <use xlink:href="#m344f935fdf" x="383.440333" y="385.586037" style="fill: #0000ff; fill-opacity: 0.5; stroke: #0000ff; stroke-opacity: 0.5"/>
     <use xlink:href="#m344f935fdf" x="387.904333" y="387.34553" style="fill: #0000ff; fill-opacity: 0.5; stroke: #0000ff; stroke-opacity: 0.5"/>
     <use xlink:href="#m344f935fdf" x="392.368333" y="389.061825" style="fill: #0000ff; fill-opacity: 0.5; stroke: #0000ff; stroke-opacity: 0.5"/>
     <use xlink:href="#m344f935fdf" x="396.832333" y="390.736493" style="fill: #0000ff; fill-opacity: 0.5; stroke: #0000ff; stroke-opacity: 0.5"/>
     <use xlink:href="#m344f935fdf" x="401.296333" y="392.371028" style="fill: #0000ff; fill-opacity: 0.5; stroke: #0000ff; stroke-opacity: 0.5"/>
     <use xlink:href="#m344f935fdf" x="405.760333" y="393.966856" style="fill: #0000ff; fill-opacity: 0.5; stroke: #0000ff; stroke-opacity: 0.5"/>
     <use xlink:href="#m344f935fdf" x="410.224333" y="395.525333" style="fill: #0000ff; fill-opacity: 0.5; stroke: #0000ff; stroke-opacity: 0.5"/>
     <use xlink:href="#m344f935fdf" x="414.688333" y="397.047755" style="fill: #0000ff; fill-opacity: 0.5; stroke: #0000ff; stroke-opacity: 0.5"/>
     <use xlink:href="#m344f935fdf" x="419.152333" y="398.535359" style="fill: #0000ff; fill-opacity: 0.5; stroke: #0000ff; stroke-opacity: 0.5"/>
     <use xlink:href="#m344f935fdf" x="423.616333" y="399.989323" style="fill: #0000ff; fill-opacity: 0.5; stroke: #0000ff; stroke-opacity: 0.5"/>
     <use xlink:href="#m344f935fdf" x="428.080333" y="401.410777" style="fill: #0000ff; fill-opacity: 0.5; stroke: #0000ff; stroke-opacity: 0.5"/>
     <use xlink:href="#m344f935fdf" x="432.544333" y="402.800796" style="fill: #0000ff; fill-opacity: 0.5; stroke: #0000ff; stroke-opacity: 0.5"/>
     <use xlink:href="#m344f935fdf" x="437.008333" y="404.160413" style="fill: #0000ff; fill-opacity: 0.5; stroke: #0000ff; stroke-opacity: 0.5"/>
     <use xlink:href="#m344f935fdf" x="441.472333" y="405.490612" style="fill: #0000ff; fill-opacity: 0.5; stroke: #0000ff; stroke-opacity: 0.5"/>
     <use xlink:href="#m344f935fdf" x="445.936333" y="406.792338" style="fill: #0000ff; fill-opacity: 0.5; stroke: #0000ff; stroke-opacity: 0.5"/>
     <use xlink:href="#m344f935fdf" x="450.400333" y="408.066494" style="fill: #0000ff; fill-opacity: 0.5; stroke: #0000ff; stroke-opacity: 0.5"/>
     <use xlink:href="#m344f935fdf" x="454.864333" y="409.313948" style="fill: #0000ff; fill-opacity: 0.5; stroke: #0000ff; stroke-opacity: 0.5"/>
     <use xlink:href="#m344f935fdf" x="459.328333" y="410.535528" style="fill: #0000ff; fill-opacity: 0.5; stroke: #0000ff; stroke-opacity: 0.5"/>
     <use xlink:href="#m344f935fdf" x="463.792333" y="411.732032" style="fill: #0000ff; fill-opacity: 0.5; stroke: #0000ff; stroke-opacity: 0.5"/>
     <use xlink:href="#m344f935fdf" x="468.256333" y="412.904223" style="fill: #0000ff; fill-opacity: 0.5; stroke: #0000ff; stroke-opacity: 0.5"/>
     <use xlink:href="#m344f935fdf" x="472.720333" y="414.052833" style="fill: #0000ff; fill-opacity: 0.5; stroke: #0000ff; stroke-opacity: 0.5"/>
     <use xlink:href="#m344f935fdf" x="477.184333" y="415.178568" style="fill: #0000ff; fill-opacity: 0.5; stroke: #0000ff; stroke-opacity: 0.5"/>
     <use xlink:href="#m344f935fdf" x="481.648333" y="416.282103" style="fill: #0000ff; fill-opacity: 0.5; stroke: #0000ff; stroke-opacity: 0.5"/>
     <use xlink:href="#m344f935fdf" x="486.112333" y="417.364089" style="fill: #0000ff; fill-opacity: 0.5; stroke: #0000ff; stroke-opacity: 0.5"/>
     <use xlink:href="#m344f935fdf" x="490.576333" y="418.42515" style="fill: #0000ff; fill-opacity: 0.5; stroke: #0000ff; stroke-opacity: 0.5"/>
     <use xlink:href="#m344f935fdf" x="495.040333" y="419.465886" style="fill: #0000ff; fill-opacity: 0.5; stroke: #0000ff; stroke-opacity: 0.5"/>
     <use xlink:href="#m344f935fdf" x="499.504333" y="420.486876" style="fill: #0000ff; fill-opacity: 0.5; stroke: #0000ff; stroke-opacity: 0.5"/>
     <use xlink:href="#m344f935fdf" x="503.968333" y="421.488677" style="fill: #0000ff; fill-opacity: 0.5; stroke: #0000ff; stroke-opacity: 0.5"/>
     <use xlink:href="#m344f935fdf" x="508.432333" y="422.471824" style="fill: #0000ff; fill-opacity: 0.5; stroke: #0000ff; stroke-opacity: 0.5"/>
     <use xlink:href="#m344f935fdf" x="512.896333" y="423.436833" style="fill: #0000ff; fill-opacity: 0.5; stroke: #0000ff; stroke-opacity: 0.5"/>
     <use xlink:href="#m344f935fdf" x="517.360333" y="424.384201" style="fill: #0000ff; fill-opacity: 0.5; stroke: #0000ff; stroke-opacity: 0.5"/>
     <use xlink:href="#m344f935fdf" x="521.824333" y="425.314407" style="fill: #0000ff; fill-opacity: 0.5; stroke: #0000ff; stroke-opacity: 0.5"/>
     <use xlink:href="#m344f935fdf" x="526.288333" y="426.227913" style="fill: #0000ff; fill-opacity: 0.5; stroke: #0000ff; stroke-opacity: 0.5"/>
     <use xlink:href="#m344f935fdf" x="530.752333" y="427.125164" style="fill: #0000ff; fill-opacity: 0.5; stroke: #0000ff; stroke-opacity: 0.5"/>
     <use xlink:href="#m344f935fdf" x="535.216333" y="428.006591" style="fill: #0000ff; fill-opacity: 0.5; stroke: #0000ff; stroke-opacity: 0.5"/>
     <use xlink:href="#m344f935fdf" x="539.680333" y="428.872608" style="fill: #0000ff; fill-opacity: 0.5; stroke: #0000ff; stroke-opacity: 0.5"/>
     <use xlink:href="#m344f935fdf" x="544.144333" y="429.723615" style="fill: #0000ff; fill-opacity: 0.5; stroke: #0000ff; stroke-opacity: 0.5"/>
     <use xlink:href="#m344f935fdf" x="548.608333" y="430.56" style="fill: #0000ff; fill-opacity: 0.5; stroke: #0000ff; stroke-opacity: 0.5"/>
    </g>
   </g>
   <g id="PathCollection_2">
    <defs>
     <path id="m701e1d0be1" d="M 0 -2.5 
L -2.5 2.5 
L 2.5 2.5 
z
" style="stroke: #ff0000; stroke-opacity: 0.5"/>
    </defs>
    <g clip-path="url(#pc1520b4947)">
     <use xlink:href="#m701e1d0be1" x="128.992333" y="27.36" style="fill: #ff0000; fill-opacity: 0.5; stroke: #ff0000; stroke-opacity: 0.5"/>
     <use xlink:href="#m701e1d0be1" x="133.456333" y="48.574976" style="fill: #ff0000; fill-opacity: 0.5; stroke: #ff0000; stroke-opacity: 0.5"/>
     <use xlink:href="#m701e1d0be1" x="137.920333" y="68.06116" style="fill: #ff0000; fill-opacity: 0.5; stroke: #ff0000; stroke-opacity: 0.5"/>
     <use xlink:href="#m701e1d0be1" x="142.384333" y="86.022343" style="fill: #ff0000; fill-opacity: 0.5; stroke: #ff0000; stroke-opacity: 0.5"/>
     <use xlink:href="#m701e1d0be1" x="146.848333" y="102.631323" style="fill: #ff0000; fill-opacity: 0.5; stroke: #ff0000; stroke-opacity: 0.5"/>
     <use xlink:href="#m701e1d0be1" x="151.312333" y="118.035618" style="fill: #ff0000; fill-opacity: 0.5; stroke: #ff0000; stroke-opacity: 0.5"/>
     <use xlink:href="#m701e1d0be1" x="155.776333" y="132.36195" style="fill: #ff0000; fill-opacity: 0.5; stroke: #ff0000; stroke-opacity: 0.5"/>
     <use xlink:href="#m701e1d0be1" x="160.240333" y="145.719806" style="fill: #ff0000; fill-opacity: 0.5; stroke: #ff0000; stroke-opacity: 0.5"/>
     <use xlink:href="#m701e1d0be1" x="164.704333" y="158.204287" style="fill: #ff0000; fill-opacity: 0.5; stroke: #ff0000; stroke-opacity: 0.5"/>
     <use xlink:href="#m701e1d0be1" x="169.168333" y="169.8984" style="fill: #ff0000; fill-opacity: 0.5; stroke: #ff0000; stroke-opacity: 0.5"/>
     <use xlink:href="#m701e1d0be1" x="173.632333" y="180.874936" style="fill: #ff0000; fill-opacity: 0.5; stroke: #ff0000; stroke-opacity: 0.5"/>
     <use xlink:href="#m701e1d0be1" x="178.096333" y="191.197993" style="fill: #ff0000; fill-opacity: 0.5; stroke: #ff0000; stroke-opacity: 0.5"/>
     <use xlink:href="#m701e1d0be1" x="182.560333" y="200.924243" style="fill: #ff0000; fill-opacity: 0.5; stroke: #ff0000; stroke-opacity: 0.5"/>
     <use xlink:href="#m701e1d0be1" x="187.024333" y="210.103983" style="fill: #ff0000; fill-opacity: 0.5; stroke: #ff0000; stroke-opacity: 0.5"/>
     <use xlink:href="#m701e1d0be1" x="191.488333" y="218.782002" style="fill: #ff0000; fill-opacity: 0.5; stroke: #ff0000; stroke-opacity: 0.5"/>
     <use xlink:href="#m701e1d0be1" x="195.952333" y="226.998323" style="fill: #ff0000; fill-opacity: 0.5; stroke: #ff0000; stroke-opacity: 0.5"/>
     <use xlink:href="#m701e1d0be1" x="200.416333" y="234.788819" style="fill: #ff0000; fill-opacity: 0.5; stroke: #ff0000; stroke-opacity: 0.5"/>
     <use xlink:href="#m701e1d0be1" x="204.880333" y="242.185737" style="fill: #ff0000; fill-opacity: 0.5; stroke: #ff0000; stroke-opacity: 0.5"/>
     <use xlink:href="#m701e1d0be1" x="209.344333" y="249.218147" style="fill: #ff0000; fill-opacity: 0.5; stroke: #ff0000; stroke-opacity: 0.5"/>
     <use xlink:href="#m701e1d0be1" x="213.808333" y="255.912325" style="fill: #ff0000; fill-opacity: 0.5; stroke: #ff0000; stroke-opacity: 0.5"/>
     <use xlink:href="#m701e1d0be1" x="218.272333" y="262.292079" style="fill: #ff0000; fill-opacity: 0.5; stroke: #ff0000; stroke-opacity: 0.5"/>
     <use xlink:href="#m701e1d0be1" x="222.736333" y="268.379036" style="fill: #ff0000; fill-opacity: 0.5; stroke: #ff0000; stroke-opacity: 0.5"/>
     <use xlink:href="#m701e1d0be1" x="227.200333" y="274.192881" style="fill: #ff0000; fill-opacity: 0.5; stroke: #ff0000; stroke-opacity: 0.5"/>
     <use xlink:href="#m701e1d0be1" x="231.664333" y="279.751576" style="fill: #ff0000; fill-opacity: 0.5; stroke: #ff0000; stroke-opacity: 0.5"/>
     <use xlink:href="#m701e1d0be1" x="236.128333" y="285.071539" style="fill: #ff0000; fill-opacity: 0.5; stroke: #ff0000; stroke-opacity: 0.5"/>
     <use xlink:href="#m701e1d0be1" x="240.592333" y="290.167812" style="fill: #ff0000; fill-opacity: 0.5; stroke: #ff0000; stroke-opacity: 0.5"/>
     <use xlink:href="#m701e1d0be1" x="245.056333" y="295.054198" style="fill: #ff0000; fill-opacity: 0.5; stroke: #ff0000; stroke-opacity: 0.5"/>
     <use xlink:href="#m701e1d0be1" x="249.520333" y="299.743389" style="fill: #ff0000; fill-opacity: 0.5; stroke: #ff0000; stroke-opacity: 0.5"/>
     <use xlink:href="#m701e1d0be1" x="253.984333" y="304.247074" style="fill: #ff0000; fill-opacity: 0.5; stroke: #ff0000; stroke-opacity: 0.5"/>
     <use xlink:href="#m701e1d0be1" x="258.448333" y="308.576035" style="fill: #ff0000; fill-opacity: 0.5; stroke: #ff0000; stroke-opacity: 0.5"/>
     <use xlink:href="#m701e1d0be1" x="262.912333" y="312.740237" style="fill: #ff0000; fill-opacity: 0.5; stroke: #ff0000; stroke-opacity: 0.5"/>
     <use xlink:href="#m701e1d0be1" x="267.376333" y="316.748899" style="fill: #ff0000; fill-opacity: 0.5; stroke: #ff0000; stroke-opacity: 0.5"/>
     <use xlink:href="#m701e1d0be1" x="271.840333" y="320.610568" style="fill: #ff0000; fill-opacity: 0.5; stroke: #ff0000; stroke-opacity: 0.5"/>
     <use xlink:href="#m701e1d0be1" x="276.304333" y="324.333174" style="fill: #ff0000; fill-opacity: 0.5; stroke: #ff0000; stroke-opacity: 0.5"/>
     <use xlink:href="#m701e1d0be1" x="280.768333" y="327.924089" style="fill: #ff0000; fill-opacity: 0.5; stroke: #ff0000; stroke-opacity: 0.5"/>
     <use xlink:href="#m701e1d0be1" x="285.232333" y="331.390172" style="fill: #ff0000; fill-opacity: 0.5; stroke: #ff0000; stroke-opacity: 0.5"/>
     <use xlink:href="#m701e1d0be1" x="289.696333" y="334.737814" style="fill: #ff0000; fill-opacity: 0.5; stroke: #ff0000; stroke-opacity: 0.5"/>
     <use xlink:href="#m701e1d0be1" x="294.160333" y="337.972979" style="fill: #ff0000; fill-opacity: 0.5; stroke: #ff0000; stroke-opacity: 0.5"/>
     <use xlink:href="#m701e1d0be1" x="298.624333" y="341.101235" style="fill: #ff0000; fill-opacity: 0.5; stroke: #ff0000; stroke-opacity: 0.5"/>
     <use xlink:href="#m701e1d0be1" x="303.088333" y="344.12779" style="fill: #ff0000; fill-opacity: 0.5; stroke: #ff0000; stroke-opacity: 0.5"/>
     <use xlink:href="#m701e1d0be1" x="307.552333" y="347.05752" style="fill: #ff0000; fill-opacity: 0.5; stroke: #ff0000; stroke-opacity: 0.5"/>
     <use xlink:href="#m701e1d0be1" x="312.016333" y="349.894993" style="fill: #ff0000; fill-opacity: 0.5; stroke: #ff0000; stroke-opacity: 0.5"/>
     <use xlink:href="#m701e1d0be1" x="316.480333" y="352.644496" style="fill: #ff0000; fill-opacity: 0.5; stroke: #ff0000; stroke-opacity: 0.5"/>
     <use xlink:href="#m701e1d0be1" x="320.944333" y="355.310052" style="fill: #ff0000; fill-opacity: 0.5; stroke: #ff0000; stroke-opacity: 0.5"/>
     <use xlink:href="#m701e1d0be1" x="325.408333" y="357.895445" style="fill: #ff0000; fill-opacity: 0.5; stroke: #ff0000; stroke-opacity: 0.5"/>
     <use xlink:href="#m701e1d0be1" x="329.872333" y="360.404233" style="fill: #ff0000; fill-opacity: 0.5; stroke: #ff0000; stroke-opacity: 0.5"/>
     <use xlink:href="#m701e1d0be1" x="334.336333" y="362.83977" style="fill: #ff0000; fill-opacity: 0.5; stroke: #ff0000; stroke-opacity: 0.5"/>
     <use xlink:href="#m701e1d0be1" x="338.800333" y="365.205214" style="fill: #ff0000; fill-opacity: 0.5; stroke: #ff0000; stroke-opacity: 0.5"/>
     <use xlink:href="#m701e1d0be1" x="343.264333" y="367.503544" style="fill: #ff0000; fill-opacity: 0.5; stroke: #ff0000; stroke-opacity: 0.5"/>
     <use xlink:href="#m701e1d0be1" x="347.728333" y="369.737575" style="fill: #ff0000; fill-opacity: 0.5; stroke: #ff0000; stroke-opacity: 0.5"/>
     <use xlink:href="#m701e1d0be1" x="352.192333" y="371.909966" style="fill: #ff0000; fill-opacity: 0.5; stroke: #ff0000; stroke-opacity: 0.5"/>
     <use xlink:href="#m701e1d0be1" x="356.656333" y="374.02323" style="fill: #ff0000; fill-opacity: 0.5; stroke: #ff0000; stroke-opacity: 0.5"/>
     <use xlink:href="#m701e1d0be1" x="361.120333" y="376.079748" style="fill: #ff0000; fill-opacity: 0.5; stroke: #ff0000; stroke-opacity: 0.5"/>
    </g>
   </g>
   <g id="matplotlib.axis_1">
    <g id="xtick_1">
     <g id="line2d_2">
      <defs>
       <path id="m6ab52526a9" d="M 0 0 
L 0 3.5 
" style="stroke: #000000; stroke-width: 0.8"/>
      </defs>
      <g>
       <use xlink:href="#m6ab52526a9" x="102.208333" y="450.72" style="stroke: #000000; stroke-width: 0.8"/>
      </g>
     </g>
     <g id="text_1">
      <!-- 0.0 -->
      <g transform="translate(81.004167 477.9825) scale(0.266667 -0.266667)">
       <defs>
        <path id="DejaVuSans-30" d="M 2034 4250 
Q 1547 4250 1301 3770 
Q 1056 3291 1056 2328 
Q 1056 1369 1301 889 
Q 1547 409 2034 409 
Q 2525 409 2770 889 
Q 3016 1369 3016 2328 
Q 3016 3291 2770 3770 
Q 2525 4250 2034 4250 
z
M 2034 4750 
Q 2819 4750 3233 4129 
Q 3647 3509 3647 2328 
Q 3647 1150 3233 529 
Q 2819 -91 2034 -91 
Q 1250 -91 836 529 
Q 422 1150 422 2328 
Q 422 3509 836 4129 
Q 1250 4750 2034 4750 
z
" transform="scale(0.015625)"/>
        <path id="DejaVuSans-2e" d="M 684 794 
L 1344 794 
L 1344 0 
L 684 0 
L 684 794 
z
" transform="scale(0.015625)"/>
       </defs>
       <use xlink:href="#DejaVuSans-30"/>
       <use xlink:href="#DejaVuSans-2e" x="63.623047"/>
       <use xlink:href="#DejaVuSans-30" x="95.410156"/>
      </g>
     </g>
    </g>
    <g id="xtick_2">
     <g id="line2d_3">
      <g>
       <use xlink:href="#m6ab52526a9" x="213.808333" y="450.72" style="stroke: #000000; stroke-width: 0.8"/>
      </g>
     </g>
     <g id="text_2">
      <!-- 0.5 -->
      <g transform="translate(192.604167 477.9825) scale(0.266667 -0.266667)">
       <defs>
        <path id="DejaVuSans-35" d="M 691 4666 
L 3169 4666 
L 3169 4134 
L 1269 4134 
L 1269 2991 
Q 1406 3038 1543 3061 
Q 1681 3084 1819 3084 
Q 2600 3084 3056 2656 
Q 3513 2228 3513 1497 
Q 3513 744 3044 326 
Q 2575 -91 1722 -91 
Q 1428 -91 1123 -41 
Q 819 9 494 109 
L 494 744 
Q 775 591 1075 516 
Q 1375 441 1709 441 
Q 2250 441 2565 725 
Q 2881 1009 2881 1497 
Q 2881 1984 2565 2268 
Q 2250 2553 1709 2553 
Q 1456 2553 1204 2497 
Q 953 2441 691 2322 
L 691 4666 
z
" transform="scale(0.015625)"/>
       </defs>
       <use xlink:href="#DejaVuSans-30"/>
       <use xlink:href="#DejaVuSans-2e" x="63.623047"/>
       <use xlink:href="#DejaVuSans-35" x="95.410156"/>
      </g>
     </g>
    </g>
    <g id="xtick_3">
     <g id="line2d_4">
      <g>
       <use xlink:href="#m6ab52526a9" x="325.408333" y="450.72" style="stroke: #000000; stroke-width: 0.8"/>
      </g>
     </g>
     <g id="text_3">
      <!-- 1.0 -->
      <g transform="translate(304.204167 477.9825) scale(0.266667 -0.266667)">
       <defs>
        <path id="DejaVuSans-31" d="M 794 531 
L 1825 531 
L 1825 4091 
L 703 3866 
L 703 4441 
L 1819 4666 
L 2450 4666 
L 2450 531 
L 3481 531 
L 3481 0 
L 794 0 
L 794 531 
z
" transform="scale(0.015625)"/>
       </defs>
       <use xlink:href="#DejaVuSans-31"/>
       <use xlink:href="#DejaVuSans-2e" x="63.623047"/>
       <use xlink:href="#DejaVuSans-30" x="95.410156"/>
      </g>
     </g>
    </g>
    <g id="xtick_4">
     <g id="line2d_5">
      <g>
       <use xlink:href="#m6ab52526a9" x="437.008333" y="450.72" style="stroke: #000000; stroke-width: 0.8"/>
      </g>
     </g>
     <g id="text_4">
      <!-- 1.5 -->
      <g transform="translate(415.804167 477.9825) scale(0.266667 -0.266667)">
       <use xlink:href="#DejaVuSans-31"/>
       <use xlink:href="#DejaVuSans-2e" x="63.623047"/>
       <use xlink:href="#DejaVuSans-35" x="95.410156"/>
      </g>
     </g>
    </g>
    <g id="xtick_5">
     <g id="line2d_6">
      <g>
       <use xlink:href="#m6ab52526a9" x="548.608333" y="450.72" style="stroke: #000000; stroke-width: 0.8"/>
      </g>
     </g>
     <g id="text_5">
      <!-- 2.0 -->
      <g transform="translate(527.404167 477.9825) scale(0.266667 -0.266667)">
       <defs>
        <path id="DejaVuSans-32" d="M 1228 531 
L 3431 531 
L 3431 0 
L 469 0 
L 469 531 
Q 828 903 1448 1529 
Q 2069 2156 2228 2338 
Q 2531 2678 2651 2914 
Q 2772 3150 2772 3378 
Q 2772 3750 2511 3984 
Q 2250 4219 1831 4219 
Q 1534 4219 1204 4116 
Q 875 4013 500 3803 
L 500 4441 
Q 881 4594 1212 4672 
Q 1544 4750 1819 4750 
Q 2544 4750 2975 4387 
Q 3406 4025 3406 3419 
Q 3406 3131 3298 2873 
Q 3191 2616 2906 2266 
Q 2828 2175 2409 1742 
Q 1991 1309 1228 531 
z
" transform="scale(0.015625)"/>
       </defs>
       <use xlink:href="#DejaVuSans-32"/>
       <use xlink:href="#DejaVuSans-2e" x="63.623047"/>
       <use xlink:href="#DejaVuSans-30" x="95.410156"/>
      </g>
     </g>
    </g>
    <g id="text_6">
     <!-- $\bar{\rho}}$ -->
     <g transform="translate(312.608333 517.928333) scale(0.4 -0.4)">
      <defs>
       <path id="DejaVuSans-304" d="M -2522 4769 
L -653 4769 
L -653 4306 
L -2522 4306 
L -2522 4769 
z
" transform="scale(0.015625)"/>
       <path id="DejaVuSans-Oblique-3c1" d="M 1203 2875 
Q 1453 3194 1981 3475 
Q 2188 3584 2756 3584 
Q 3394 3584 3694 3078 
Q 3994 2572 3834 1747 
Q 3672 922 3175 415 
Q 2678 -91 2041 -91 
Q 1656 -91 1409 63 
Q 1163 213 1044 525 
L 681 -1331 
L 103 -1331 
L 697 1716 
Q 838 2438 1203 2875 
z
M 3238 1747 
Q 3359 2381 3169 2744 
Q 2978 3103 2522 3103 
Q 2066 3103 1734 2744 
Q 1403 2381 1281 1747 
Q 1156 1113 1347 750 
Q 1538 391 1994 391 
Q 2450 391 2781 750 
Q 3113 1113 3238 1747 
z
" transform="scale(0.015625)"/>
      </defs>
      <use xlink:href="#DejaVuSans-304" transform="translate(64.275391 1.484375)"/>
      <use xlink:href="#DejaVuSans-Oblique-3c1" transform="translate(0 0.265625)"/>
     </g>
    </g>
   </g>
   <g id="matplotlib.axis_2">
    <g id="ytick_1">
     <g id="line2d_7">
      <defs>
       <path id="m527ebc178f" d="M 0 0 
L -3.5 0 
" style="stroke: #000000; stroke-width: 0.8"/>
      </defs>
      <g>
       <use xlink:href="#m527ebc178f" x="102.208333" y="376.270817" style="stroke: #000000; stroke-width: 0.8"/>
      </g>
     </g>
     <g id="text_7">
      <!-- 0.0 -->
      <g transform="translate(52.8 386.402067) scale(0.266667 -0.266667)">
       <use xlink:href="#DejaVuSans-30"/>
       <use xlink:href="#DejaVuSans-2e" x="63.623047"/>
       <use xlink:href="#DejaVuSans-30" x="95.410156"/>
      </g>
     </g>
    </g>
    <g id="ytick_2">
     <g id="line2d_8">
      <g>
       <use xlink:href="#m527ebc178f" x="102.208333" y="290.012135" style="stroke: #000000; stroke-width: 0.8"/>
      </g>
     </g>
     <g id="text_8">
      <!-- 0.1 -->
      <g transform="translate(52.8 300.143385) scale(0.266667 -0.266667)">
       <use xlink:href="#DejaVuSans-30"/>
       <use xlink:href="#DejaVuSans-2e" x="63.623047"/>
       <use xlink:href="#DejaVuSans-31" x="95.410156"/>
      </g>
     </g>
    </g>
    <g id="ytick_3">
     <g id="line2d_9">
      <g>
       <use xlink:href="#m527ebc178f" x="102.208333" y="203.753453" style="stroke: #000000; stroke-width: 0.8"/>
      </g>
     </g>
     <g id="text_9">
      <!-- 0.2 -->
      <g transform="translate(52.8 213.884703) scale(0.266667 -0.266667)">
       <use xlink:href="#DejaVuSans-30"/>
       <use xlink:href="#DejaVuSans-2e" x="63.623047"/>
       <use xlink:href="#DejaVuSans-32" x="95.410156"/>
      </g>
     </g>
    </g>
    <g id="ytick_4">
     <g id="line2d_10">
      <g>
       <use xlink:href="#m527ebc178f" x="102.208333" y="117.494771" style="stroke: #000000; stroke-width: 0.8"/>
      </g>
     </g>
     <g id="text_10">
      <!-- 0.3 -->
      <g transform="translate(52.8 127.626021) scale(0.266667 -0.266667)">
       <defs>
        <path id="DejaVuSans-33" d="M 2597 2516 
Q 3050 2419 3304 2112 
Q 3559 1806 3559 1356 
Q 3559 666 3084 287 
Q 2609 -91 1734 -91 
Q 1441 -91 1130 -33 
Q 819 25 488 141 
L 488 750 
Q 750 597 1062 519 
Q 1375 441 1716 441 
Q 2309 441 2620 675 
Q 2931 909 2931 1356 
Q 2931 1769 2642 2001 
Q 2353 2234 1838 2234 
L 1294 2234 
L 1294 2753 
L 1863 2753 
Q 2328 2753 2575 2939 
Q 2822 3125 2822 3475 
Q 2822 3834 2567 4026 
Q 2313 4219 1838 4219 
Q 1578 4219 1281 4162 
Q 984 4106 628 3988 
L 628 4550 
Q 988 4650 1302 4700 
Q 1616 4750 1894 4750 
Q 2613 4750 3031 4423 
Q 3450 4097 3450 3541 
Q 3450 3153 3228 2886 
Q 3006 2619 2597 2516 
z
" transform="scale(0.015625)"/>
       </defs>
       <use xlink:href="#DejaVuSans-30"/>
       <use xlink:href="#DejaVuSans-2e" x="63.623047"/>
       <use xlink:href="#DejaVuSans-33" x="95.410156"/>
      </g>
     </g>
    </g>
    <g id="ytick_5">
     <g id="line2d_11">
      <g>
       <use xlink:href="#m527ebc178f" x="102.208333" y="31.236088" style="stroke: #000000; stroke-width: 0.8"/>
      </g>
     </g>
     <g id="text_11">
      <!-- 0.4 -->
      <g transform="translate(52.8 41.367338) scale(0.266667 -0.266667)">
       <defs>
        <path id="DejaVuSans-34" d="M 2419 4116 
L 825 1625 
L 2419 1625 
L 2419 4116 
z
M 2253 4666 
L 3047 4666 
L 3047 1625 
L 3713 1625 
L 3713 1100 
L 3047 1100 
L 3047 0 
L 2419 0 
L 2419 1100 
L 313 1100 
L 313 1709 
L 2253 4666 
z
" transform="scale(0.015625)"/>
       </defs>
       <use xlink:href="#DejaVuSans-30"/>
       <use xlink:href="#DejaVuSans-2e" x="63.623047"/>
       <use xlink:href="#DejaVuSans-34" x="95.410156"/>
      </g>
     </g>
    </g>
    <g id="text_12">
     <!-- $\lambda$ (min$^{-1}$) -->
     <g transform="translate(40.48125 321.96) rotate(-90) scale(0.4 -0.4)">
      <defs>
       <path id="DejaVuSans-Oblique-3bb" d="M 2350 4316 
L 3125 0 
L 2516 0 
L 2038 2588 
L 328 0 
L -281 0 
L 1903 3356 
L 1794 3975 
Q 1725 4369 1391 4369 
L 1091 4369 
L 1184 4863 
L 1550 4856 
Q 2253 4847 2350 4316 
z
" transform="scale(0.015625)"/>
       <path id="DejaVuSans-20" transform="scale(0.015625)"/>
       <path id="DejaVuSans-28" d="M 1984 4856 
Q 1566 4138 1362 3434 
Q 1159 2731 1159 2009 
Q 1159 1288 1364 580 
Q 1569 -128 1984 -844 
L 1484 -844 
Q 1016 -109 783 600 
Q 550 1309 550 2009 
Q 550 2706 781 3412 
Q 1013 4119 1484 4856 
L 1984 4856 
z
" transform="scale(0.015625)"/>
       <path id="DejaVuSans-6d" d="M 3328 2828 
Q 3544 3216 3844 3400 
Q 4144 3584 4550 3584 
Q 5097 3584 5394 3201 
Q 5691 2819 5691 2113 
L 5691 0 
L 5113 0 
L 5113 2094 
Q 5113 2597 4934 2840 
Q 4756 3084 4391 3084 
Q 3944 3084 3684 2787 
Q 3425 2491 3425 1978 
L 3425 0 
L 2847 0 
L 2847 2094 
Q 2847 2600 2669 2842 
Q 2491 3084 2119 3084 
Q 1678 3084 1418 2786 
Q 1159 2488 1159 1978 
L 1159 0 
L 581 0 
L 581 3500 
L 1159 3500 
L 1159 2956 
Q 1356 3278 1631 3431 
Q 1906 3584 2284 3584 
Q 2666 3584 2933 3390 
Q 3200 3197 3328 2828 
z
" transform="scale(0.015625)"/>
       <path id="DejaVuSans-69" d="M 603 3500 
L 1178 3500 
L 1178 0 
L 603 0 
L 603 3500 
z
M 603 4863 
L 1178 4863 
L 1178 4134 
L 603 4134 
L 603 4863 
z
" transform="scale(0.015625)"/>
       <path id="DejaVuSans-6e" d="M 3513 2113 
L 3513 0 
L 2938 0 
L 2938 2094 
Q 2938 2591 2744 2837 
Q 2550 3084 2163 3084 
Q 1697 3084 1428 2787 
Q 1159 2491 1159 1978 
L 1159 0 
L 581 0 
L 581 3500 
L 1159 3500 
L 1159 2956 
Q 1366 3272 1645 3428 
Q 1925 3584 2291 3584 
Q 2894 3584 3203 3211 
Q 3513 2838 3513 2113 
z
" transform="scale(0.015625)"/>
       <path id="DejaVuSans-2212" d="M 678 2272 
L 4684 2272 
L 4684 1741 
L 678 1741 
L 678 2272 
z
" transform="scale(0.015625)"/>
       <path id="DejaVuSans-29" d="M 513 4856 
L 1013 4856 
Q 1481 4119 1714 3412 
Q 1947 2706 1947 2009 
Q 1947 1309 1714 600 
Q 1481 -109 1013 -844 
L 513 -844 
Q 928 -128 1133 580 
Q 1338 1288 1338 2009 
Q 1338 2731 1133 3434 
Q 928 4138 513 4856 
z
" transform="scale(0.015625)"/>
      </defs>
      <use xlink:href="#DejaVuSans-Oblique-3bb" transform="translate(0 0.684375)"/>
      <use xlink:href="#DejaVuSans-20" transform="translate(59.179688 0.684375)"/>
      <use xlink:href="#DejaVuSans-28" transform="translate(90.966797 0.684375)"/>
      <use xlink:href="#DejaVuSans-6d" transform="translate(129.980469 0.684375)"/>
      <use xlink:href="#DejaVuSans-69" transform="translate(227.392578 0.684375)"/>
      <use xlink:href="#DejaVuSans-6e" transform="translate(255.175781 0.684375)"/>
      <use xlink:href="#DejaVuSans-2212" transform="translate(319.511719 38.965625) scale(0.7)"/>
      <use xlink:href="#DejaVuSans-31" transform="translate(378.164062 38.965625) scale(0.7)"/>
      <use xlink:href="#DejaVuSans-29" transform="translate(425.43457 0.684375)"/>
     </g>
    </g>
   </g>
   <g id="patch_3">
    <path d="M 102.208333 450.72 
L 102.208333 7.2 
" style="fill: none; stroke: #000000; stroke-width: 0.8; stroke-linejoin: miter; stroke-linecap: square"/>
   </g>
   <g id="patch_4">
    <path d="M 548.608333 450.72 
L 548.608333 7.2 
" style="fill: none; stroke: #000000; stroke-width: 0.8; stroke-linejoin: miter; stroke-linecap: square"/>
   </g>
   <g id="patch_5">
    <path d="M 102.208333 450.72 
L 548.608333 450.72 
" style="fill: none; stroke: #000000; stroke-width: 0.8; stroke-linejoin: miter; stroke-linecap: square"/>
   </g>
   <g id="patch_6">
    <path d="M 102.208333 7.2 
L 548.608333 7.2 
" style="fill: none; stroke: #000000; stroke-width: 0.8; stroke-linejoin: miter; stroke-linecap: square"/>
   </g>
   <g id="legend_1">
    <g id="patch_7">
     <path d="M 299.541667 106.816667 
L 529.941667 106.816667 
Q 535.275 106.816667 535.275 101.483333 
L 535.275 25.866667 
Q 535.275 20.533333 529.941667 20.533333 
L 299.541667 20.533333 
Q 294.208333 20.533333 294.208333 25.866667 
L 294.208333 101.483333 
Q 294.208333 106.816667 299.541667 106.816667 
z
" style="fill: #ffffff; opacity: 0.8; stroke: #cccccc; stroke-linejoin: miter"/>
    </g>
    <g id="PathCollection_3">
     <defs>
      <path id="maff1733e65" d="M -0 10 
L 10 -10 
L -10 -10 
z
" style="stroke: #0000ff; stroke-opacity: 0.5"/>
     </defs>
     <g>
      <use xlink:href="#maff1733e65" x="331.541667" y="44.4625" style="fill: #0000ff; fill-opacity: 0.5; stroke: #0000ff; stroke-opacity: 0.5"/>
     </g>
    </g>
    <g id="text_13">
     <!-- values $\leq 0$ -->
     <g transform="translate(379.541667 51.4625) scale(0.266667 -0.266667)">
      <defs>
       <path id="DejaVuSans-76" d="M 191 3500 
L 800 3500 
L 1894 563 
L 2988 3500 
L 3597 3500 
L 2284 0 
L 1503 0 
L 191 3500 
z
" transform="scale(0.015625)"/>
       <path id="DejaVuSans-61" d="M 2194 1759 
Q 1497 1759 1228 1600 
Q 959 1441 959 1056 
Q 959 750 1161 570 
Q 1363 391 1709 391 
Q 2188 391 2477 730 
Q 2766 1069 2766 1631 
L 2766 1759 
L 2194 1759 
z
M 3341 1997 
L 3341 0 
L 2766 0 
L 2766 531 
Q 2569 213 2275 61 
Q 1981 -91 1556 -91 
Q 1019 -91 701 211 
Q 384 513 384 1019 
Q 384 1609 779 1909 
Q 1175 2209 1959 2209 
L 2766 2209 
L 2766 2266 
Q 2766 2663 2505 2880 
Q 2244 3097 1772 3097 
Q 1472 3097 1187 3025 
Q 903 2953 641 2809 
L 641 3341 
Q 956 3463 1253 3523 
Q 1550 3584 1831 3584 
Q 2591 3584 2966 3190 
Q 3341 2797 3341 1997 
z
" transform="scale(0.015625)"/>
       <path id="DejaVuSans-6c" d="M 603 4863 
L 1178 4863 
L 1178 0 
L 603 0 
L 603 4863 
z
" transform="scale(0.015625)"/>
       <path id="DejaVuSans-75" d="M 544 1381 
L 544 3500 
L 1119 3500 
L 1119 1403 
Q 1119 906 1312 657 
Q 1506 409 1894 409 
Q 2359 409 2629 706 
Q 2900 1003 2900 1516 
L 2900 3500 
L 3475 3500 
L 3475 0 
L 2900 0 
L 2900 538 
Q 2691 219 2414 64 
Q 2138 -91 1772 -91 
Q 1169 -91 856 284 
Q 544 659 544 1381 
z
M 1991 3584 
L 1991 3584 
z
" transform="scale(0.015625)"/>
       <path id="DejaVuSans-65" d="M 3597 1894 
L 3597 1613 
L 953 1613 
Q 991 1019 1311 708 
Q 1631 397 2203 397 
Q 2534 397 2845 478 
Q 3156 559 3463 722 
L 3463 178 
Q 3153 47 2828 -22 
Q 2503 -91 2169 -91 
Q 1331 -91 842 396 
Q 353 884 353 1716 
Q 353 2575 817 3079 
Q 1281 3584 2069 3584 
Q 2775 3584 3186 3129 
Q 3597 2675 3597 1894 
z
M 3022 2063 
Q 3016 2534 2758 2815 
Q 2500 3097 2075 3097 
Q 1594 3097 1305 2825 
Q 1016 2553 972 2059 
L 3022 2063 
z
" transform="scale(0.015625)"/>
       <path id="DejaVuSans-73" d="M 2834 3397 
L 2834 2853 
Q 2591 2978 2328 3040 
Q 2066 3103 1784 3103 
Q 1356 3103 1142 2972 
Q 928 2841 928 2578 
Q 928 2378 1081 2264 
Q 1234 2150 1697 2047 
L 1894 2003 
Q 2506 1872 2764 1633 
Q 3022 1394 3022 966 
Q 3022 478 2636 193 
Q 2250 -91 1575 -91 
Q 1294 -91 989 -36 
Q 684 19 347 128 
L 347 722 
Q 666 556 975 473 
Q 1284 391 1588 391 
Q 1994 391 2212 530 
Q 2431 669 2431 922 
Q 2431 1156 2273 1281 
Q 2116 1406 1581 1522 
L 1381 1569 
Q 847 1681 609 1914 
Q 372 2147 372 2553 
Q 372 3047 722 3315 
Q 1072 3584 1716 3584 
Q 2034 3584 2315 3537 
Q 2597 3491 2834 3397 
z
" transform="scale(0.015625)"/>
       <path id="DejaVuSans-2264" d="M 4684 3175 
L 1684 2309 
L 4684 1453 
L 4684 897 
L 678 2047 
L 678 2578 
L 4684 3725 
L 4684 3175 
z
M 678 531 
L 4684 531 
L 4684 0 
L 678 0 
L 678 531 
z
" transform="scale(0.015625)"/>
      </defs>
      <use xlink:href="#DejaVuSans-76" transform="translate(0 0.015625)"/>
      <use xlink:href="#DejaVuSans-61" transform="translate(59.179688 0.015625)"/>
      <use xlink:href="#DejaVuSans-6c" transform="translate(120.458984 0.015625)"/>
      <use xlink:href="#DejaVuSans-75" transform="translate(148.242188 0.015625)"/>
      <use xlink:href="#DejaVuSans-65" transform="translate(211.621094 0.015625)"/>
      <use xlink:href="#DejaVuSans-73" transform="translate(273.144531 0.015625)"/>
      <use xlink:href="#DejaVuSans-20" transform="translate(325.244141 0.015625)"/>
      <use xlink:href="#DejaVuSans-2264" transform="translate(376.513672 0.015625)"/>
      <use xlink:href="#DejaVuSans-30" transform="translate(479.785156 0.015625)"/>
     </g>
    </g>
    <g id="PathCollection_4">
     <defs>
      <path id="m34069a47c9" d="M 0 -10 
L -10 10 
L 10 10 
z
" style="stroke: #ff0000; stroke-opacity: 0.5"/>
     </defs>
     <g>
      <use xlink:href="#m34069a47c9" x="331.541667" y="83.604167" style="fill: #ff0000; fill-opacity: 0.5; stroke: #ff0000; stroke-opacity: 0.5"/>
     </g>
    </g>
    <g id="text_14">
     <!-- values $&gt; 0$ -->
     <g transform="translate(379.541667 90.604167) scale(0.266667 -0.266667)">
      <defs>
       <path id="DejaVuSans-3e" d="M 678 3150 
L 678 3719 
L 4684 2266 
L 4684 1747 
L 678 294 
L 678 863 
L 3897 2003 
L 678 3150 
z
" transform="scale(0.015625)"/>
      </defs>
      <use xlink:href="#DejaVuSans-76" transform="translate(0 0.015625)"/>
      <use xlink:href="#DejaVuSans-61" transform="translate(59.179688 0.015625)"/>
      <use xlink:href="#DejaVuSans-6c" transform="translate(120.458984 0.015625)"/>
      <use xlink:href="#DejaVuSans-75" transform="translate(148.242188 0.015625)"/>
      <use xlink:href="#DejaVuSans-65" transform="translate(211.621094 0.015625)"/>
      <use xlink:href="#DejaVuSans-73" transform="translate(273.144531 0.015625)"/>
      <use xlink:href="#DejaVuSans-20" transform="translate(325.244141 0.015625)"/>
      <use xlink:href="#DejaVuSans-3e" transform="translate(376.513672 0.015625)"/>
      <use xlink:href="#DejaVuSans-30" transform="translate(479.785156 0.015625)"/>
     </g>
    </g>
   </g>
  </g>
 </g>
 <defs>
  <clipPath id="pc1520b4947">
   <rect x="102.208333" y="7.2" width="446.4" height="443.52"/>
  </clipPath>
 </defs>
</svg>
